<?xml version="1.0" encoding="utf-8"?>
<!-- Generator: Adobe Illustrator 23.0.2, SVG Export Plug-In . SVG Version: 6.00 Build 0)  -->
<svg version="1.1" id="addEstimation" xmlns="http://www.w3.org/2000/svg" xmlns:xlink="http://www.w3.org/1999/xlink" x="0px"
	 y="0px" viewBox="0 0 55 55" style="enable-background:new 0 0 55 55;" xml:space="preserve">
<style type="text/css">
	.st0{fill:#FFFFFF;}
	.st1{fill:#2D4F61;}
</style>
<g>
	<g>
		<path class="st0" d="M27.48,10.05c-9.61,0-17.43,7.82-17.43,17.43s7.82,17.43,17.43,17.43c9.61,0,17.43-7.82,17.43-17.43
			S37.09,10.05,27.48,10.05z M23.44,32.58c-0.17,0-0.3-0.13-0.3-0.3c0-0.17,0.13-0.3,0.3-0.3h0.72c-0.18,0.19-0.35,0.39-0.49,0.6
			H23.44z M23.44,27.95l8.08,0c0.17,0,0.3,0.13,0.3,0.3c0,0.17-0.13,0.3-0.3,0.3h-8.08c-0.17,0-0.3-0.13-0.3-0.3
			C23.14,28.09,23.27,27.95,23.44,27.95z M23.17,25.66v-3.84c0-0.08,0.03-0.16,0.09-0.22l1.92-1.88c0.12-0.12,0.32-0.12,0.44,0
			l1.92,1.88c0.06,0.06,0.09,0.14,0.09,0.22v3.84c0,0.17-0.14,0.31-0.31,0.31h-3.84C23.31,25.97,23.17,25.83,23.17,25.66z
			 M23.44,29.97h8.08c0.17,0,0.3,0.13,0.3,0.3c0,0.17-0.13,0.3-0.3,0.3h-3.35c-0.18-0.02-0.36-0.06-0.55-0.06s-0.36,0.03-0.55,0.06
			h-3.64c-0.17,0-0.3-0.13-0.3-0.3C23.14,30.1,23.27,29.97,23.44,29.97z M25.34,34.34h1.57V34v-1.42v0c0-0.29,0.24-0.53,0.53-0.53
			h0.25c0.29,0,0.53,0.24,0.53,0.53v0V34v0.34h1.65c0.19,0,0.35,0.11,0.44,0.26c0.05,0.08,0.08,0.17,0.08,0.27v0.24
			c0,0.29-0.24,0.53-0.53,0.53h-1.65v1.75c0,0.29-0.24,0.53-0.53,0.53h-0.25c-0.29,0-0.53-0.24-0.53-0.53v-1.75h-1.57
			c-0.29,0-0.53-0.24-0.53-0.53v-0.24c0-0.1,0.04-0.19,0.08-0.27C24.99,34.44,25.15,34.34,25.34,34.34z M33.7,34.3
			c0,0.17-0.13,0.3-0.3,0.3h-1.01c-0.03-0.21-0.08-0.4-0.14-0.6h0.85v-7.08c0-0.17,0.13-0.3,0.3-0.3c0.17,0,0.3,0.13,0.3,0.3V34.3z
			 M33.7,25.56c0,0.17-0.13,0.3-0.3,0.3s-0.3-0.13-0.3-0.3v-3.97h-2.81c-0.17,0-0.3-0.13-0.3-0.3v-2.81h-8.13V34h1.15
			c-0.06,0.2-0.11,0.39-0.14,0.6h-1.31c-0.17,0-0.3-0.13-0.3-0.3v-0.36v-0.6v-1.25v-0.6v-1.25v-0.6v-1.25v-0.6v-1.06v-0.6v-2.17
			v-2.99v-0.46v-0.6v-0.78v-0.6v-0.36c0-0.17,0.13-0.3,0.3-0.3h8.73c0.08,0,0.16,0.03,0.21,0.09l3.11,3.11
			c0.06,0.06,0.09,0.13,0.09,0.21V25.56z"/>
		<polygon class="st0" points="27,21.96 25.4,20.38 23.79,21.96 23.79,25.35 27,25.35 		"/>
		<polygon class="st0" points="30.59,20.99 32.67,20.99 30.59,18.9 		"/>
	</g>
	<g>
		<path class="st1" d="M27.48,7.95c-10.77,0-19.54,8.76-19.54,19.54c0,10.77,8.76,19.54,19.54,19.54s19.54-8.76,19.54-19.54
			C47.02,16.71,38.25,7.95,27.48,7.95z M27.48,44.92c-9.61,0-17.43-7.82-17.43-17.43s7.82-17.43,17.43-17.43
			c9.61,0,17.43,7.82,17.43,17.43S37.09,44.92,27.48,44.92z"/>
		<path class="st1" d="M23.14,32.28c0,0.17,0.13,0.3,0.3,0.3h0.23c0.15-0.21,0.31-0.41,0.49-0.6h-0.72
			C23.27,31.98,23.14,32.12,23.14,32.28z"/>
		<path class="st1" d="M31.52,29.97h-8.08c-0.17,0-0.3,0.13-0.3,0.3c0,0.17,0.13,0.3,0.3,0.3h3.64c0.18-0.02,0.36-0.06,0.55-0.06
			s0.36,0.03,0.55,0.06h3.35c0.17,0,0.3-0.13,0.3-0.3C31.82,30.1,31.68,29.97,31.52,29.97z"/>
		<path class="st1" d="M33.4,26.62c-0.17,0-0.3,0.13-0.3,0.3V34h-0.85c0.06,0.2,0.11,0.39,0.14,0.6h1.01c0.17,0,0.3-0.13,0.3-0.3
			v-7.38C33.7,26.75,33.56,26.62,33.4,26.62z"/>
		<path class="st1" d="M30.5,17.97c-0.05-0.06-0.13-0.09-0.21-0.09h-8.73c-0.17,0-0.3,0.13-0.3,0.3v0.36v0.6v0.78v0.6v0.46v2.99
			v2.17v0.6v1.06v0.6v1.25v0.6v1.25v0.6v1.25v0.6v0.36c0,0.17,0.13,0.3,0.3,0.3h1.31c0.03-0.21,0.08-0.4,0.14-0.6h-1.15V18.48h8.13
			v2.81c0,0.17,0.13,0.3,0.3,0.3h2.81v3.97c0,0.17,0.13,0.3,0.3,0.3s0.3-0.13,0.3-0.3v-4.27c0-0.08-0.03-0.15-0.09-0.21L30.5,17.97z
			 M30.59,20.99V18.9l2.09,2.09H30.59z"/>
		<path class="st1" d="M31.52,27.95l-8.08,0c-0.17,0-0.3,0.13-0.3,0.3c0,0.17,0.13,0.3,0.3,0.3h8.08c0.17,0,0.3-0.13,0.3-0.3
			C31.82,28.09,31.68,27.95,31.52,27.95z"/>
		<path class="st1" d="M23.48,25.97h3.84c0.17,0,0.31-0.14,0.31-0.31v-3.84c0-0.08-0.03-0.16-0.09-0.22l-1.92-1.88
			c-0.12-0.12-0.32-0.12-0.44,0l-1.92,1.88c-0.06,0.06-0.09,0.14-0.09,0.22v3.84C23.17,25.83,23.31,25.97,23.48,25.97z M23.79,21.96
			l1.61-1.57L27,21.96v3.39h-3.21V21.96z"/>
		<path class="st1" d="M29.86,34.34h-1.65V34v-1.42v0c0-0.29-0.24-0.53-0.53-0.53h-0.25c-0.29,0-0.53,0.24-0.53,0.53v0V34v0.34
			h-1.57c-0.19,0-0.35,0.11-0.44,0.26c-0.05,0.08-0.08,0.17-0.08,0.27v0.24c0,0.29,0.24,0.53,0.53,0.53h1.57v1.75
			c0,0.29,0.24,0.53,0.53,0.53h0.25c0.29,0,0.53-0.24,0.53-0.53v-1.75h1.65c0.29,0,0.53-0.24,0.53-0.53v-0.24
			c0-0.1-0.04-0.19-0.08-0.27C30.21,34.44,30.05,34.34,29.86,34.34z"/>
	</g>
</g>
</svg>
