<?xml version="1.0" encoding="utf-8"?>
<!-- Generator: Adobe Illustrator 23.0.2, SVG Export Plug-In . SVG Version: 6.00 Build 0)  -->
<svg version="1.1" id="addClient" xmlns="http://www.w3.org/2000/svg" xmlns:xlink="http://www.w3.org/1999/xlink" x="0px" y="0px"
	 viewBox="0 0 55 55" style="enable-background:new 0 0 55 55;" xml:space="preserve">
<style type="text/css">
	.st0{fill:#FFFFFF;}
	.st1{fill:#2D4F61;}
</style>
<g>
	<g>
		<path class="st0" d="M28.07,28.12l0.71,0.71c0,0,0.01,0.01,0.02,0.01c0.01,0,0.01-0.01,0.01-0.01l0.89-1.33l-0.29-0.3L28.07,28.12
			z"/>
		<path class="st0" d="M29.17,26.15c-0.47,0.25-1,0.38-1.54,0.38c-0.07,0-0.15,0-0.22-0.01c-0.48-0.03-0.92-0.17-1.32-0.38v0.53
			l1.54,1.06l1.54-1.06V26.15z"/>
		<path class="st0" d="M25.55,27.5l0.89,1.33c0,0,0.01,0.01,0.01,0.01c0.01,0,0.01,0,0.02-0.01l0.71-0.71l-1.34-0.92L25.55,27.5z"/>
		<path class="st0" d="M27.44,25.96c0.68,0.04,1.32-0.15,1.85-0.55c0,0,0,0,0,0c0.08-0.06,0.15-0.12,0.22-0.19
			c0.56-0.53,0.87-1.24,0.87-2.02v-0.81c0-0.04,0.01-0.09,0.03-0.12c0.18-0.38,0.28-0.78,0.28-1.2V18.3h-3.98
			c-1.19,0-2.15,0.97-2.15,2.15v0.61c0,0.42,0.09,0.82,0.28,1.2c0.02,0.04,0.03,0.08,0.03,0.12v0.71
			C24.86,24.61,26,25.86,27.44,25.96z M25.21,21.67v-0.66c0-0.29,0.21-0.54,0.5-0.58c0.92-0.14,3.18-0.34,4.25,0.73
			c0.11,0.11,0.11,0.29,0,0.4c-0.11,0.11-0.29,0.11-0.4,0c-0.38-0.38-1.02-0.6-1.91-0.66c-0.76-0.05-1.48,0.04-1.85,0.09
			c-0.01,0-0.01,0.01-0.01,0.02v0.66c0,0.16-0.13,0.29-0.29,0.29C25.34,21.96,25.21,21.83,25.21,21.67z"/>
		<path class="st0" d="M27.48,9.77c-9.61,0-17.43,7.82-17.43,17.43c0,9.61,7.82,17.43,17.43,17.43c9.61,0,17.43-7.82,17.43-17.43
			S37.09,9.77,27.48,9.77z M23.99,31.73v-1.22c0-0.16,0.13-0.29,0.29-0.29c0.16,0,0.29,0.13,0.29,0.29v0.84
			c-0.19,0.15-0.36,0.32-0.52,0.5C24.02,31.81,23.99,31.78,23.99,31.73z M28.21,32.3v1.76h1.65c0.29,0,0.53,0.24,0.53,0.53v0.24
			c0,0.29-0.24,0.53-0.53,0.53h-1.65v1.75c0,0.29-0.24,0.53-0.53,0.53h-0.25c-0.29,0-0.53-0.24-0.53-0.53v-1.75h-1.57
			c-0.29,0-0.53-0.24-0.53-0.53v-0.24c0-0.29,0.24-0.53,0.53-0.53h1.57V32.3c0-0.26,0.2-0.48,0.45-0.51c0.02,0,0.05-0.01,0.07-0.01
			h0.25c0.07,0,0.14,0.02,0.2,0.04C28.07,31.89,28.21,32.08,28.21,32.3z M31.26,31.73c0,0.05-0.03,0.08-0.05,0.12
			c-0.16-0.18-0.34-0.34-0.52-0.5v-0.84c0-0.16,0.13-0.29,0.29-0.29c0.16,0,0.29,0.13,0.29,0.29V31.73z M33.09,31.73
			c0,0.16-0.13,0.29-0.29,0.29c-0.16,0-0.29-0.13-0.29-0.29v-2.19c0-0.39-0.25-0.74-0.61-0.88l-1.85-0.67l-0.77,1.15
			c-0.1,0.15-0.26,0.24-0.43,0.26c-0.02,0-0.04,0-0.06,0c-0.16,0-0.3-0.06-0.42-0.17l-0.47-0.47v1.49c-0.1-0.01-0.19-0.03-0.29-0.03
			s-0.19,0.02-0.29,0.03v-1.49l-0.47,0.47c-0.11,0.11-0.26,0.17-0.42,0.17c-0.02,0-0.04,0-0.06,0c-0.18-0.02-0.33-0.11-0.43-0.26
			l-0.77-1.15l-1.85,0.67c-0.37,0.13-0.61,0.49-0.61,0.88v2.19c0,0.16-0.13,0.29-0.29,0.29c-0.16,0-0.29-0.13-0.29-0.29v-2.19
			c0-0.29,0.08-0.56,0.23-0.8l0.41-0.43c0.11-0.08,0.23-0.14,0.35-0.18l1.75-0.64c-0.01-0.08,0.02-0.16,0.08-0.22l0.53-0.56v-0.96
			c-0.75-0.63-1.22-1.59-1.22-2.66v-0.64c-0.2-0.44-0.3-0.91-0.3-1.39v-0.61c0-1.5,1.22-2.72,2.72-2.72h4.27
			c0.16,0,0.29,0.13,0.29,0.29v3.05c0,0.48-0.1,0.95-0.3,1.39v0.75c0,0.92-0.38,1.8-1.05,2.43c-0.05,0.05-0.11,0.1-0.17,0.14v0.94
			l0.53,0.56c0.06,0.06,0.08,0.14,0.08,0.22l1.66,0.6l0.66,0.4c0.26,0.27,0.42,0.65,0.42,1.04V31.73z"/>
	</g>
	<g>
		<path class="st1" d="M27.48,7.67c-10.77,0-19.54,8.76-19.54,19.54s8.76,19.54,19.54,19.54s19.54-8.76,19.54-19.54
			C47.02,16.43,38.25,7.67,27.48,7.67z M10.04,27.2c0-9.61,7.82-17.43,17.43-17.43c9.61,0,17.43,7.82,17.43,17.43
			s-7.82,17.43-17.43,17.43C17.86,44.64,10.04,36.82,10.04,27.2z"/>
		<path class="st1" d="M32.01,28.09l-1.66-0.6c0.01-0.08-0.02-0.16-0.08-0.22l-0.53-0.56v-0.94c0.06-0.05,0.11-0.09,0.17-0.14
			c0.67-0.63,1.05-1.51,1.05-2.43v-0.75c0.2-0.44,0.3-0.91,0.3-1.39v-3.05c0-0.16-0.13-0.29-0.29-0.29h-4.27
			c-1.5,0-2.72,1.22-2.72,2.72v0.61c0,0.48,0.1,0.95,0.3,1.39v0.64c0,1.07,0.47,2.03,1.22,2.66v0.96l-0.53,0.56
			c-0.06,0.06-0.08,0.14-0.08,0.22l-1.75,0.64c-0.13,0.05-0.25,0.11-0.35,0.18l-0.41,0.43c-0.15,0.23-0.23,0.51-0.23,0.8v2.19
			c0,0.16,0.13,0.29,0.29,0.29c0.16,0,0.29-0.13,0.29-0.29v-2.19c0-0.39,0.25-0.74,0.61-0.88l1.85-0.67l0.77,1.15
			c0.1,0.15,0.26,0.24,0.43,0.26c0.02,0,0.04,0,0.06,0c0.16,0,0.3-0.06,0.42-0.17l0.47-0.47v1.49c0.1-0.01,0.19-0.03,0.29-0.03
			s0.19,0.02,0.29,0.03v-1.49l0.47,0.47c0.11,0.11,0.26,0.17,0.42,0.17c0.02,0,0.04,0,0.06,0c0.18-0.02,0.33-0.11,0.43-0.26
			l0.77-1.15l1.85,0.67c0.37,0.13,0.61,0.49,0.61,0.88v2.19c0,0.16,0.13,0.29,0.29,0.29c0.16,0,0.29-0.13,0.29-0.29v-2.19
			c0-0.4-0.16-0.77-0.42-1.04L32.01,28.09z M24.86,23.09v-0.71c0-0.04-0.01-0.09-0.03-0.12c-0.18-0.38-0.28-0.78-0.28-1.2v-0.61
			c0-1.19,0.97-2.15,2.15-2.15h3.98v2.76c0,0.42-0.09,0.82-0.28,1.2c-0.02,0.04-0.03,0.08-0.03,0.12v0.81
			c0,0.77-0.31,1.49-0.87,2.02c-0.07,0.07-0.14,0.13-0.22,0.19c0,0,0,0,0,0c-0.53,0.4-1.17,0.6-1.85,0.55
			C26,25.86,24.86,24.61,24.86,23.09z M26.47,28.83c0,0-0.01,0.01-0.02,0.01c-0.01,0-0.01-0.01-0.01-0.01l-0.89-1.33l0.29-0.3
			l1.34,0.92L26.47,28.83z M27.63,27.73l-1.54-1.06v-0.53c0.4,0.22,0.85,0.35,1.32,0.38c0.08,0,0.15,0.01,0.22,0.01
			c0.55,0,1.07-0.13,1.54-0.38v0.52L27.63,27.73z M28.82,28.83c0,0-0.01,0.01-0.01,0.01c-0.01,0-0.01,0-0.02-0.01l-0.71-0.71
			l1.34-0.92l0.29,0.3L28.82,28.83z"/>
		<path class="st1" d="M25.78,21.67v-0.66c0-0.01,0.01-0.02,0.01-0.02c0.37-0.06,1.1-0.14,1.85-0.09c0.89,0.06,1.53,0.28,1.91,0.66
			c0.11,0.11,0.29,0.11,0.4,0c0.11-0.11,0.11-0.29,0-0.4c-1.08-1.08-3.33-0.87-4.25-0.73c-0.29,0.04-0.5,0.29-0.5,0.58v0.66
			c0,0.16,0.13,0.29,0.29,0.29C25.65,21.96,25.78,21.83,25.78,21.67z"/>
		<path class="st1" d="M24.27,30.23c-0.16,0-0.29,0.13-0.29,0.29v1.22c0,0.05,0.03,0.08,0.05,0.12c0.16-0.18,0.34-0.34,0.52-0.5
			v-0.84C24.56,30.36,24.43,30.23,24.27,30.23z"/>
		<path class="st1" d="M30.98,30.23c-0.16,0-0.29,0.13-0.29,0.29v0.84c0.19,0.15,0.36,0.32,0.52,0.5c0.02-0.04,0.05-0.07,0.05-0.12
			v-1.22C31.26,30.36,31.14,30.23,30.98,30.23z"/>
		<path class="st1" d="M29.86,34.06h-1.65V32.3c0-0.22-0.14-0.41-0.33-0.49c-0.06-0.02-0.13-0.04-0.2-0.04h-0.25
			c-0.03,0-0.05,0.01-0.07,0.01c-0.26,0.04-0.45,0.25-0.45,0.51v1.76h-1.57c-0.29,0-0.53,0.24-0.53,0.53v0.24
			c0,0.29,0.24,0.53,0.53,0.53h1.57v1.75c0,0.29,0.24,0.53,0.53,0.53h0.25c0.29,0,0.53-0.24,0.53-0.53v-1.75h1.65
			c0.29,0,0.53-0.24,0.53-0.53v-0.24C30.39,34.29,30.15,34.06,29.86,34.06z"/>
	</g>
</g>
</svg>
