<?xml version="1.0" encoding="utf-8"?>
<!-- Generator: Adobe Illustrator 23.0.2, SVG Export Plug-In . SVG Version: 6.00 Build 0)  -->
<svg version="1.1" id="listClient" xmlns="http://www.w3.org/2000/svg" xmlns:xlink="http://www.w3.org/1999/xlink" x="0px" y="0px"
	 viewBox="0 0 55 55" style="enable-background:new 0 0 55 55;" xml:space="preserve">
<style type="text/css">
	.st0{fill:#FFFFFF;}
	.st1{fill:#2D4F61;}
</style>
<g>
	<g>
		<path class="st0" d="M26.5,25.07c-0.1,0.1-0.17,0.25-0.17,0.41v0.21h2.51V24.9H26.9C26.74,24.9,26.6,24.96,26.5,25.07z"/>
		<path class="st0" d="M26.33,27.12c0,0.34,0.14,0.66,0.37,0.89c0.23,0.23,0.54,0.37,0.89,0.37c0.34,0,0.66-0.14,0.89-0.37
			c0.23-0.23,0.37-0.54,0.37-0.89v-0.87h-2.51V27.12z"/>
		<path class="st0" d="M20.63,26.55c-0.09,0.29-0.24,0.56-0.48,0.75c-0.24,0.19-0.56,0.31-0.98,0.28c-0.08,0-0.15-0.01-0.24-0.02
			c0.06,0.17,0.16,0.33,0.29,0.45c0.23,0.23,0.54,0.37,0.89,0.37c0.34,0,0.66-0.14,0.89-0.37c0.23-0.23,0.37-0.54,0.37-0.89v-0.7
			c-0.26,0.02-0.5-0.03-0.68-0.11C20.67,26.4,20.66,26.47,20.63,26.55z"/>
		<path class="st0" d="M20.79,24.9h-1.36c-0.16,0-0.3,0.07-0.41,0.17c-0.1,0.1-0.17,0.25-0.17,0.41v1.49
			c0.12,0.03,0.24,0.04,0.34,0.05c0.27,0.01,0.46-0.05,0.6-0.16c0.14-0.11,0.23-0.28,0.29-0.47c0.05-0.17,0.08-0.36,0.09-0.54
			c0.01-0.16,0.14-0.28,0.3-0.27c0.07,0,0.13,0.03,0.18,0.08c0.04,0.04,0.32,0.27,0.71,0.21v-0.38c0-0.16-0.06-0.3-0.17-0.41
			S20.95,24.9,20.79,24.9z"/>
		<path class="st0" d="M19.78,22c0.16,0,0.28,0.13,0.28,0.29v0.69l0.89-0.89c0.06-0.06,0.13-0.08,0.2-0.08l4.89,0
			c0.32,0,0.61-0.13,0.82-0.34s0.34-0.5,0.34-0.82v-3.2c0-0.32-0.13-0.61-0.34-0.82s-0.5-0.34-0.82-0.34h-6.26
			c-0.32,0-0.61,0.13-0.82,0.34c-0.21,0.21-0.34,0.5-0.34,0.82v3.2c0,0.32,0.13,0.61,0.34,0.82C19.17,21.87,19.46,22,19.78,22z
			 M20.27,17.46h5.28c0.16,0,0.28,0.13,0.28,0.28c0,0.16-0.13,0.29-0.28,0.29h-5.28c-0.16,0-0.28-0.13-0.28-0.29
			S20.12,17.46,20.27,17.46z M20.27,18.96h5.28c0.16,0,0.28,0.13,0.28,0.28c0,0.16-0.13,0.29-0.28,0.29h-5.28
			c-0.16,0-0.28-0.13-0.28-0.29C19.99,19.09,20.12,18.96,20.27,18.96z M20.27,20.46h2.64c0.16,0,0.29,0.13,0.29,0.29
			s-0.13,0.29-0.29,0.29h-2.64c-0.16,0-0.28-0.13-0.28-0.29S20.12,20.46,20.27,20.46z"/>
		<path class="st0" d="M35.11,27.29c-0.24-0.19-0.39-0.46-0.48-0.75c-0.02-0.08-0.04-0.15-0.06-0.23c-0.18,0.08-0.41,0.13-0.68,0.11
			v0.7c0,0.34,0.14,0.66,0.37,0.89c0.23,0.23,0.54,0.37,0.89,0.37c0.34,0,0.66-0.14,0.89-0.37c0.13-0.13,0.23-0.28,0.29-0.45
			c-0.08,0.01-0.16,0.02-0.24,0.02C35.67,27.6,35.35,27.49,35.11,27.29z"/>
		<path class="st0" d="M27.63,9.77c-9.61,0-17.43,7.82-17.43,17.43s7.82,17.43,17.43,17.43c9.61,0,17.43-7.82,17.43-17.43
			S37.24,9.77,27.63,9.77z M18.05,17.65c0-0.48,0.19-0.91,0.51-1.22c0.31-0.31,0.74-0.51,1.22-0.51h6.26c0.48,0,0.91,0.2,1.22,0.51
			c0.31,0.31,0.51,0.75,0.51,1.22v0.53h4.84c0.38,0,0.72,0.15,0.97,0.4s0.4,0.59,0.4,0.97v2.75c0,0.38-0.15,0.72-0.4,0.97
			c-0.18,0.18-0.42,0.32-0.69,0.37v1.12c0,0.07-0.03,0.15-0.08,0.2c-0.11,0.11-0.29,0.11-0.4,0l-1.29-1.29h-1.56
			c-0.16,0-0.29-0.13-0.29-0.28c0-0.16,0.13-0.29,0.29-0.29h1.68c0.08,0,0.15,0.03,0.2,0.09l0.89,0.89v-0.69
			c0-0.16,0.13-0.29,0.29-0.29c0.22,0,0.42-0.09,0.57-0.24c0.15-0.15,0.24-0.35,0.24-0.57v-2.75c0-0.22-0.09-0.42-0.24-0.57
			c-0.15-0.15-0.35-0.24-0.57-0.24h-4.84v2.1c0,0.48-0.19,0.91-0.51,1.22c-0.31,0.31-0.74,0.51-1.22,0.51h-0.2
			c0.04,0.11,0.1,0.21,0.18,0.29c0.14,0.15,0.35,0.24,0.57,0.24h1.68c0.16,0,0.28,0.13,0.28,0.29c0,0.16-0.13,0.28-0.28,0.28H26.6
			c-0.38,0-0.72-0.16-0.97-0.41c-0.19-0.19-0.32-0.43-0.37-0.69h-3.98l-1.29,1.29c-0.05,0.05-0.12,0.08-0.2,0.08
			c-0.16,0-0.29-0.13-0.29-0.28v-1.11c-0.36-0.06-0.69-0.23-0.94-0.48c-0.31-0.31-0.51-0.74-0.51-1.22V17.65z M17.9,34.49v-1.92
			c0-0.16,0.13-0.28,0.29-0.28c0.16,0,0.28,0.13,0.28,0.28v1.64l3.3,0v-2.49l-0.97-1.28c-0.09-0.13-0.07-0.3,0.06-0.4
			c0.13-0.09,0.3-0.07,0.4,0.06l0.99,1.31c0.09,0.12,0.18,0.24,0.27,0.36c0.05,0.07,0.12,0.12,0.19,0.15
			c0.08,0.04,0.15,0.05,0.24,0.05h1.03c-0.15,0.18-0.3,0.37-0.43,0.57h-1.21v1.65h0.55c-0.03,0.19-0.04,0.38-0.06,0.57
			c-1.55,0-3.1,0-4.65,0C18.02,34.77,17.9,34.64,17.9,34.49z M28.8,34.2l-0.23,0.57l-0.68,1.65h-0.24l-0.68-1.65l-0.23-0.57
			l-0.44-1.08h0.28l0.44,1.08l0.23,0.57l0.53,1.31l0.53-1.31l0.23-0.57l0.44-1.08h0.27L28.8,34.2z M37.37,34.49
			c0,0.16-0.13,0.28-0.28,0.28c-1.55,0-3.1,0-4.65,0c-0.01-0.19-0.02-0.39-0.06-0.57h0.56v-1.65h0h-1.21
			c-0.13-0.2-0.27-0.39-0.43-0.57h1.01c0.09,0,0.17-0.01,0.26-0.05c0.17-0.08,0.32-0.34,0.43-0.49l1.01-1.34
			c0.09-0.13,0.27-0.15,0.4-0.06c0.13,0.09,0.15,0.27,0.05,0.4l-0.96,1.28v2.49h3.3v-1.64c0-0.16,0.13-0.28,0.29-0.28
			s0.28,0.13,0.28,0.28V34.49z M37.37,31.27c0,0.16-0.13,0.28-0.28,0.28c-0.16,0-0.29-0.13-0.29-0.28v-1.92
			c0-0.19-0.07-0.36-0.18-0.5c-0.1-0.12-0.24-0.21-0.39-0.25c-0.3,0.22-0.67,0.35-1.07,0.35c-0.41,0-0.79-0.14-1.1-0.37
			c-0.06,0.01-0.11,0.02-0.17,0.05c-0.07,0.03-0.14,0.09-0.19,0.16l-1.53,2.03c-0.05,0.07-0.14,0.11-0.23,0.11h-1.89
			c-0.23-0.13-0.46-0.25-0.71-0.34c0.18-0.13,0.39-0.23,0.64-0.23h0.11V29.2c0-0.16-0.11-0.32-0.28-0.47
			c-0.2-0.18-0.49-0.33-0.81-0.44c-0.04,0.04-0.08,0.09-0.12,0.13c-0.33,0.33-0.79,0.54-1.29,0.54c-0.5,0-0.96-0.2-1.29-0.54
			c-0.03-0.03-0.06-0.06-0.09-0.1c-0.3,0.12-0.56,0.26-0.75,0.43c-0.16,0.14-0.26,0.3-0.26,0.45v1.16h0.11
			c0.24,0,0.46,0.09,0.64,0.23c-0.25,0.09-0.48,0.21-0.71,0.34h-1.89c-0.09,0-0.17-0.04-0.23-0.11l-1.53-2.03
			c-0.09-0.12-0.22-0.19-0.36-0.21c-0.31,0.23-0.69,0.37-1.1,0.37c-0.4,0-0.77-0.13-1.07-0.35c-0.15,0.04-0.29,0.13-0.39,0.24
			c-0.12,0.14-0.19,0.31-0.19,0.5v1.92c0,0.16-0.13,0.28-0.28,0.28c-0.16,0-0.29-0.13-0.29-0.28v-1.92c0-0.33,0.12-0.64,0.33-0.88
			c0.11-0.13,0.24-0.23,0.39-0.31c-0.21-0.31-0.32-0.67-0.32-1.04v-1.65c0-0.32,0.13-0.6,0.34-0.81c0.21-0.21,0.49-0.34,0.81-0.34
			h1.36c0.32,0,0.6,0.13,0.81,0.34c0.21,0.21,0.34,0.49,0.34,0.81v1.65c0,0.37-0.11,0.71-0.3,0.99c0.15,0.08,0.28,0.18,0.39,0.32
			l1.45,1.91h1.14V29.2c0-0.33,0.17-0.62,0.45-0.88c0.22-0.19,0.5-0.36,0.82-0.5c-0.09-0.22-0.14-0.45-0.14-0.7v-1.15v-0.5
			c0-0.32,0.13-0.6,0.34-0.81c0.21-0.21,0.49-0.34,0.81-0.34h2.22c0.16,0,0.29,0.13,0.29,0.29v1.36v1.15c0,0.23-0.05,0.46-0.13,0.67
			c0.34,0.13,0.65,0.31,0.88,0.51c0.3,0.26,0.48,0.56,0.48,0.9v1.16h1.14l1.45-1.91c0.11-0.14,0.24-0.25,0.39-0.32
			c-0.19-0.29-0.3-0.63-0.3-0.99v-1.65c0-0.32,0.13-0.6,0.34-0.81c0.21-0.21,0.49-0.34,0.81-0.34h1.36c0.32,0,0.6,0.13,0.81,0.34
			c0.21,0.21,0.34,0.49,0.34,0.81v1.65c0,0.37-0.11,0.73-0.32,1.04c0.15,0.08,0.29,0.19,0.4,0.32c0.2,0.24,0.32,0.54,0.32,0.87
			V31.27z"/>
		<path class="st0" d="M35.83,24.9h-1.36c-0.16,0-0.3,0.07-0.41,0.17s-0.17,0.25-0.17,0.41v0.38c0.38,0.05,0.66-0.17,0.71-0.21
			c0.06-0.05,0.11-0.08,0.19-0.08c0.16-0.01,0.29,0.11,0.3,0.27c0.01,0.19,0.04,0.37,0.09,0.54c0.06,0.19,0.15,0.36,0.29,0.47
			c0.14,0.11,0.33,0.17,0.6,0.16c0.1-0.01,0.22-0.02,0.34-0.05v-1.49c0-0.16-0.07-0.3-0.17-0.41C36.13,24.96,35.99,24.9,35.83,24.9z
			"/>
	</g>
	<g>
		<path class="st1" d="M27.63,7.67c-10.77,0-19.54,8.76-19.54,19.54c0,10.77,8.76,19.54,19.54,19.54s19.54-8.76,19.54-19.54
			C47.17,16.43,38.4,7.67,27.63,7.67z M10.2,27.2c0-9.61,7.82-17.43,17.43-17.43c9.61,0,17.43,7.82,17.43,17.43
			s-7.82,17.43-17.43,17.43C18.02,44.64,10.2,36.82,10.2,27.2z"/>
		<path class="st1" d="M19.5,22.55v1.11c0,0.16,0.13,0.28,0.29,0.28c0.08,0,0.15-0.03,0.2-0.08l1.29-1.29h3.98
			c0.06,0.27,0.19,0.51,0.37,0.69c0.25,0.25,0.59,0.41,0.97,0.41h1.68c0.16,0,0.28-0.13,0.28-0.28c0-0.16-0.13-0.29-0.28-0.29H26.6
			c-0.22,0-0.42-0.09-0.57-0.24c-0.08-0.08-0.14-0.18-0.18-0.29h0.2c0.48,0,0.91-0.19,1.22-0.51c0.31-0.31,0.51-0.74,0.51-1.22v-2.1
			h4.84c0.22,0,0.42,0.09,0.57,0.24c0.15,0.15,0.24,0.35,0.24,0.57v2.75c0,0.22-0.09,0.42-0.24,0.57c-0.15,0.15-0.35,0.24-0.57,0.24
			c-0.16,0-0.29,0.13-0.29,0.29v0.69l-0.89-0.89c-0.05-0.05-0.12-0.09-0.2-0.09h-1.68c-0.16,0-0.29,0.13-0.29,0.29
			c0,0.16,0.13,0.28,0.29,0.28h1.56l1.29,1.29c0.11,0.11,0.29,0.11,0.4,0c0.06-0.06,0.08-0.13,0.08-0.2v-1.12
			c0.26-0.06,0.5-0.19,0.69-0.37c0.25-0.25,0.4-0.59,0.4-0.97v-2.75c0-0.38-0.15-0.72-0.4-0.97s-0.59-0.4-0.97-0.4h-4.84v-0.53
			c0-0.48-0.19-0.91-0.51-1.22c-0.31-0.31-0.74-0.51-1.22-0.51h-6.26c-0.48,0-0.91,0.2-1.22,0.51c-0.31,0.31-0.51,0.75-0.51,1.22
			v3.2c0,0.48,0.19,0.91,0.51,1.22C18.81,22.32,19.13,22.49,19.5,22.55z M18.62,17.65c0-0.32,0.13-0.61,0.34-0.82
			c0.21-0.21,0.5-0.34,0.82-0.34h6.26c0.32,0,0.61,0.13,0.82,0.34s0.34,0.5,0.34,0.82v3.2c0,0.32-0.13,0.61-0.34,0.82
			S26.36,22,26.04,22l-4.89,0c-0.07,0-0.15,0.03-0.2,0.08l-0.89,0.89v-0.69c0-0.16-0.13-0.29-0.28-0.29c-0.32,0-0.61-0.13-0.82-0.34
			c-0.21-0.21-0.34-0.5-0.34-0.82V17.65z"/>
		<path class="st1" d="M22.7,31.92c-0.07-0.03-0.13-0.09-0.19-0.15c-0.09-0.12-0.18-0.24-0.27-0.36l-0.99-1.31
			c-0.09-0.13-0.27-0.15-0.4-0.06c-0.13,0.09-0.15,0.27-0.06,0.4l0.97,1.28v2.49l-3.3,0v-1.64c0-0.16-0.13-0.28-0.28-0.28
			c-0.16,0-0.29,0.13-0.29,0.28v1.92c0,0.16,0.13,0.28,0.29,0.28c1.55,0,3.1,0,4.65,0c0.01-0.19,0.02-0.39,0.06-0.57h-0.55v-1.65
			h1.21c0.13-0.2,0.27-0.39,0.43-0.57h-1.03C22.85,31.98,22.78,31.96,22.7,31.92z"/>
		<path class="st1" d="M20.27,19.53h5.28c0.16,0,0.28-0.13,0.28-0.29c0-0.16-0.13-0.28-0.28-0.28h-5.28c-0.16,0-0.28,0.13-0.28,0.28
			C19.99,19.4,20.12,19.53,20.27,19.53z"/>
		<path class="st1" d="M36.65,28.16c0.21-0.31,0.32-0.67,0.32-1.04v-1.65c0-0.32-0.13-0.6-0.34-0.81c-0.21-0.21-0.49-0.34-0.81-0.34
			h-1.36c-0.32,0-0.6,0.13-0.81,0.34c-0.21,0.21-0.34,0.49-0.34,0.81v1.65c0,0.37,0.11,0.71,0.3,0.99
			c-0.15,0.07-0.28,0.18-0.39,0.32l-1.45,1.91h-1.14V29.2c0-0.34-0.18-0.64-0.48-0.9c-0.23-0.2-0.54-0.37-0.88-0.51
			c0.08-0.21,0.13-0.43,0.13-0.67v-1.15v-1.36c0-0.16-0.13-0.29-0.29-0.29H26.9c-0.32,0-0.6,0.13-0.81,0.34
			c-0.21,0.21-0.34,0.49-0.34,0.81v0.5v1.15c0,0.25,0.05,0.48,0.14,0.7c-0.32,0.13-0.6,0.3-0.82,0.5c-0.28,0.25-0.45,0.55-0.45,0.88
			v1.16h-1.14l-1.45-1.91c-0.1-0.14-0.24-0.24-0.39-0.32c0.19-0.29,0.3-0.63,0.3-0.99v-1.65c0-0.32-0.13-0.6-0.34-0.81
			c-0.21-0.21-0.49-0.34-0.81-0.34h-1.36c-0.32,0-0.6,0.13-0.81,0.34c-0.21,0.21-0.34,0.49-0.34,0.81v1.65
			c0,0.37,0.11,0.73,0.32,1.04c-0.15,0.08-0.28,0.19-0.39,0.31c-0.2,0.24-0.33,0.54-0.33,0.88v1.92c0,0.16,0.13,0.28,0.29,0.28
			c0.16,0,0.28-0.13,0.28-0.28v-1.92c0-0.19,0.07-0.37,0.19-0.5c0.1-0.12,0.24-0.2,0.39-0.24c0.3,0.22,0.67,0.35,1.07,0.35
			c0.41,0,0.79-0.14,1.1-0.37c0.14,0.02,0.27,0.09,0.36,0.21l1.53,2.03c0.06,0.07,0.14,0.11,0.23,0.11h1.89
			c0.23-0.13,0.46-0.25,0.71-0.34c-0.18-0.13-0.4-0.23-0.64-0.23h-0.11V29.2c0-0.15,0.1-0.31,0.26-0.45
			c0.19-0.17,0.45-0.31,0.75-0.43c0.03,0.03,0.06,0.07,0.09,0.1c0.33,0.33,0.79,0.54,1.29,0.54c0.5,0,0.96-0.2,1.29-0.54
			c0.04-0.04,0.08-0.08,0.12-0.13c0.32,0.12,0.6,0.27,0.81,0.44c0.17,0.15,0.28,0.31,0.28,0.47v1.16h-0.11
			c-0.24,0-0.46,0.09-0.64,0.23c0.25,0.09,0.48,0.21,0.71,0.34h1.89c0.09,0,0.17-0.04,0.23-0.11l1.53-2.03
			c0.05-0.07,0.12-0.12,0.19-0.16c0.05-0.02,0.11-0.04,0.17-0.05c0.31,0.23,0.69,0.37,1.1,0.37c0.4,0,0.77-0.13,1.07-0.35
			c0.16,0.04,0.29,0.13,0.39,0.25c0.11,0.13,0.18,0.31,0.18,0.5v1.92c0,0.16,0.13,0.28,0.29,0.28c0.16,0,0.28-0.13,0.28-0.28v-1.92
			c0-0.33-0.12-0.63-0.32-0.87C36.94,28.35,36.8,28.24,36.65,28.16z M21.37,27.12c0,0.34-0.14,0.66-0.37,0.89
			c-0.23,0.23-0.54,0.37-0.89,0.37c-0.34,0-0.66-0.14-0.89-0.37c-0.13-0.13-0.23-0.28-0.29-0.45c0.08,0.01,0.16,0.02,0.24,0.02
			c0.42,0.02,0.74-0.09,0.98-0.28c0.24-0.19,0.39-0.46,0.48-0.75c0.02-0.08,0.04-0.15,0.06-0.23c0.18,0.08,0.41,0.13,0.68,0.11
			V27.12z M21.37,25.86c-0.39,0.05-0.67-0.18-0.71-0.21c-0.05-0.05-0.11-0.07-0.18-0.08c-0.16-0.01-0.29,0.11-0.3,0.27
			c-0.01,0.19-0.03,0.37-0.09,0.54c-0.06,0.19-0.15,0.36-0.29,0.47c-0.14,0.11-0.33,0.17-0.6,0.16c-0.1-0.01-0.22-0.02-0.34-0.05
			v-1.49c0-0.16,0.06-0.3,0.17-0.41c0.1-0.1,0.25-0.17,0.41-0.17h1.36c0.16,0,0.3,0.07,0.41,0.17s0.17,0.25,0.17,0.41V25.86z
			 M28.83,27.12c0,0.34-0.14,0.66-0.37,0.89c-0.23,0.23-0.54,0.37-0.89,0.37c-0.34,0-0.66-0.14-0.89-0.37
			c-0.23-0.23-0.37-0.54-0.37-0.89v-0.87h2.51V27.12z M28.83,25.69h-2.51v-0.21c0-0.16,0.06-0.3,0.17-0.41
			c0.1-0.1,0.25-0.17,0.41-0.17h1.93V25.69z M36.04,28.01c-0.23,0.23-0.54,0.37-0.89,0.37c-0.34,0-0.66-0.14-0.89-0.37
			c-0.23-0.23-0.37-0.54-0.37-0.89v-0.7c0.27,0.02,0.5-0.03,0.68-0.11c0.02,0.08,0.03,0.16,0.06,0.23c0.09,0.29,0.24,0.56,0.48,0.75
			c0.24,0.19,0.56,0.31,0.98,0.28c0.08,0,0.16-0.01,0.24-0.02C36.26,27.73,36.16,27.88,36.04,28.01z M36.4,26.96
			c-0.13,0.03-0.24,0.04-0.34,0.05c-0.27,0.01-0.46-0.05-0.6-0.16c-0.14-0.11-0.23-0.28-0.29-0.47c-0.05-0.17-0.08-0.36-0.09-0.54
			c-0.01-0.16-0.14-0.28-0.3-0.27c-0.08,0-0.13,0.03-0.19,0.08c-0.05,0.04-0.33,0.26-0.71,0.21v-0.38c0-0.16,0.07-0.3,0.17-0.41
			s0.25-0.17,0.41-0.17h1.36c0.16,0,0.3,0.07,0.41,0.17c0.1,0.1,0.17,0.25,0.17,0.41V26.96z"/>
		<path class="st1" d="M20.27,18.03h5.28c0.16,0,0.28-0.13,0.28-0.29c0-0.16-0.13-0.28-0.28-0.28h-5.28c-0.16,0-0.28,0.13-0.28,0.28
			S20.12,18.03,20.27,18.03z"/>
		<path class="st1" d="M20.27,21.03h2.64c0.16,0,0.29-0.13,0.29-0.29s-0.13-0.29-0.29-0.29h-2.64c-0.16,0-0.28,0.13-0.28,0.29
			S20.12,21.03,20.27,21.03z"/>
		<path class="st1" d="M37.08,32.28c-0.16,0-0.29,0.13-0.29,0.28v1.64h-3.3v-2.49l0.96-1.28c0.09-0.13,0.07-0.3-0.05-0.4
			c-0.13-0.09-0.3-0.07-0.4,0.06L33,31.44c-0.11,0.15-0.27,0.4-0.43,0.49c-0.09,0.05-0.16,0.05-0.26,0.05H31.3
			c0.15,0.18,0.3,0.37,0.43,0.57h1.21h0v1.65h-0.56c0.03,0.19,0.04,0.38,0.06,0.57c1.55,0,3.1,0,4.65,0c0.16,0,0.28-0.13,0.28-0.28
			v-1.92C37.37,32.41,37.24,32.28,37.08,32.28z"/>
		<path class="st1" d="M29.24,32.59h-0.27c-0.21,0-0.41,0.13-0.49,0.33L28.05,34l-0.23,0.57c0,0,0,0,0,0l-0.04,0.11l-0.04-0.11
			c0,0,0,0,0,0l-0.23-0.57c0,0,0,0,0,0l-0.44-1.08c-0.08-0.2-0.27-0.33-0.49-0.33H26.3c-0.18,0-0.34,0.09-0.44,0.23
			s-0.12,0.33-0.05,0.49l0.44,1.08l0.23,0.57l0.68,1.65c0.08,0.2,0.27,0.33,0.49,0.33h0.24c0.21,0,0.41-0.13,0.49-0.33l0.68-1.65
			l0.23-0.57l0.44-1.08c0.07-0.16,0.05-0.35-0.05-0.49S29.42,32.59,29.24,32.59z"/>
	</g>
</g>
</svg>
