<?xml version="1.0" encoding="utf-8"?>
<!-- Generator: Adobe Illustrator 23.0.2, SVG Export Plug-In . SVG Version: 6.00 Build 0)  -->
<svg version="1.1" id="logout" xmlns="http://www.w3.org/2000/svg" xmlns:xlink="http://www.w3.org/1999/xlink" x="0px" y="0px"
	 viewBox="0 0 55 55" style="enable-background:new 0 0 55 55;" xml:space="preserve">
<style type="text/css">
	.st0{fill:#FFFFFF;}
	.st1{fill:#2A4E61;}
	.st2{fill:#DD4D42;}
</style>
<g>
	<g>
		<path class="st0" d="M27.62,18.28c-5.11,0-9.26,4.15-9.26,9.26c0,5.11,4.15,9.26,9.26,9.26c5.11,0,9.26-4.15,9.26-9.26
			C36.89,22.43,32.73,18.28,27.62,18.28z M27.01,22.62c0-0.34,0.28-0.61,0.61-0.61c0.34,0,0.61,0.28,0.61,0.61v3.28
			c0,0.34-0.28,0.61-0.61,0.61c-0.34,0-0.61-0.28-0.61-0.61V22.62z M27.62,32.09c-2.51,0-4.55-2.04-4.55-4.55
			c0-1.31,0.57-2.56,1.56-3.43c0.26-0.22,0.64-0.2,0.87,0.06c0.22,0.26,0.2,0.64-0.06,0.87c-0.72,0.63-1.14,1.54-1.14,2.5
			c0,1.83,1.49,3.32,3.32,3.32c1.83,0,3.32-1.49,3.32-3.32c0-0.95-0.41-1.85-1.12-2.48c-0.25-0.23-0.28-0.61-0.05-0.87
			c0.23-0.25,0.61-0.28,0.87-0.05c0.97,0.86,1.53,2.1,1.53,3.4C32.17,30.05,30.13,32.09,27.62,32.09z"/>
		<path class="st0" d="M27.62,10.11c-9.61,0-17.43,7.82-17.43,17.43s7.82,17.43,17.43,17.43s17.43-7.82,17.43-17.43
			S37.24,10.11,27.62,10.11z M35.03,34.95c-4.11,4.11-10.71,4.11-14.82,0c-4.11-4.11-4.11-10.71,0-14.82
			c4.11-4.11,10.71-4.11,14.82,0C39.15,24.24,39.14,30.84,35.03,34.95z"/>
	</g>
	<path class="st1" d="M27.62,8C16.85,8,8.09,16.77,8.09,27.54c0,10.77,8.76,19.54,19.54,19.54c10.77,0,19.54-8.76,19.54-19.54
		C47.16,16.77,38.4,8,27.62,8z M27.62,44.98c-9.61,0-17.43-7.82-17.43-17.43s7.82-17.43,17.43-17.43s17.43,7.82,17.43,17.43
		S37.24,44.98,27.62,44.98z"/>
	<g>
		<path class="st2" d="M35.03,20.13c-4.11-4.11-10.71-4.11-14.82,0c-4.11,4.11-4.11,10.71,0,14.82c4.11,4.11,10.71,4.11,14.82,0
			C39.14,30.84,39.15,24.24,35.03,20.13z M27.62,36.8c-5.11,0-9.26-4.15-9.26-9.26c0-5.11,4.15-9.26,9.26-9.26
			c5.11,0,9.26,4.15,9.26,9.26C36.89,32.65,32.73,36.8,27.62,36.8z"/>
		<path class="st2" d="M29.77,24.19c-0.23,0.25-0.2,0.64,0.05,0.87c0.71,0.63,1.12,1.54,1.12,2.48c0,1.83-1.49,3.32-3.32,3.32
			c-1.83,0-3.32-1.49-3.32-3.32c0-0.96,0.41-1.87,1.14-2.5c0.26-0.22,0.28-0.61,0.06-0.87c-0.22-0.26-0.61-0.28-0.87-0.06
			c-0.99,0.86-1.56,2.11-1.56,3.43c0,2.51,2.04,4.55,4.55,4.55s4.55-2.04,4.55-4.55c0-1.3-0.56-2.54-1.53-3.4
			C30.39,23.91,30,23.94,29.77,24.19z"/>
		<path class="st2" d="M27.62,26.52c0.34,0,0.61-0.28,0.61-0.61v-3.28c0-0.34-0.28-0.61-0.61-0.61c-0.34,0-0.61,0.28-0.61,0.61v3.28
			C27.01,26.24,27.28,26.52,27.62,26.52z"/>
	</g>
</g>
</svg>
