<?xml version="1.0" encoding="utf-8"?>
<!-- Generator: Adobe Illustrator 23.0.2, SVG Export Plug-In . SVG Version: 6.00 Build 0)  -->
<svg version="1.1" id="listEstimation" xmlns="http://www.w3.org/2000/svg" xmlns:xlink="http://www.w3.org/1999/xlink" x="0px"
	 y="0px" viewBox="0 0 55 55" style="enable-background:new 0 0 55 55;" xml:space="preserve">
<style type="text/css">
	.st0{fill:#FFFFFF;}
	.st1{fill:#2D4F61;}
</style>
<g>
	<g>
		<polygon class="st0" points="19.55,23.42 19.55,25.02 20.96,25.02 20.96,23.42 20.25,22.73 		"/>
		<polygon class="st0" points="31.15,21.96 29.55,20.38 27.94,21.96 27.94,25.35 31.15,25.35 		"/>
		<polygon class="st0" points="23.31,22.56 23.31,24.83 25.4,24.83 25.4,22.56 24.36,21.54 		"/>
		<polygon class="st0" points="34.74,20.99 36.83,20.99 34.74,18.9 		"/>
		<path class="st0" d="M27.63,10.05c-9.61,0-17.43,7.82-17.43,17.43s7.82,17.43,17.43,17.43c9.61,0,17.43-7.82,17.43-17.43
			S37.24,10.05,27.63,10.05z M25.81,34.08c-0.07-0.16-0.05-0.35,0.05-0.49c0.04-0.06,0.1-0.1,0.15-0.14c0.09-0.06,0.18-0.1,0.28-0.1
			h0.28c0.21,0,0.41,0.13,0.49,0.33L27.19,34l0.24,0.6l0.34,0.85l0.35-0.85l0.24-0.6l0.13-0.31c0.08-0.2,0.27-0.33,0.49-0.33h0.27
			c0.18,0,0.34,0.09,0.44,0.23c0.08,0.12,0.09,0.27,0.06,0.41c-0.01,0.03,0,0.06-0.01,0.09l-0.21,0.51l-1.15,2.78
			c-0.08,0.2-0.27,0.33-0.49,0.33h-0.24c-0.21,0-0.41-0.13-0.49-0.33l-1.15-2.78L25.81,34.08z M27.29,30.27c0-0.17,0.13-0.3,0.3-0.3
			h8.08c0.17,0,0.3,0.13,0.3,0.3c0,0.17-0.13,0.3-0.3,0.3h-7.34c-0.18-0.02-0.36-0.06-0.55-0.06c-0.09,0-0.17,0.02-0.26,0.03
			C27.39,30.5,27.29,30.41,27.29,30.27z M27.59,27.95h8.08c0.17,0,0.3,0.13,0.3,0.3s-0.13,0.3-0.3,0.3h-8.08
			c-0.17,0-0.3-0.13-0.3-0.3C27.29,28.09,27.42,27.95,27.59,27.95z M27.32,25.66v-3.84c0-0.08,0.03-0.16,0.09-0.22l1.92-1.88
			c0.12-0.12,0.32-0.12,0.44,0l1.92,1.88c0.06,0.06,0.09,0.14,0.09,0.22v3.84c0,0.17-0.14,0.31-0.31,0.31h-3.84
			C27.46,25.97,27.32,25.83,27.32,25.66z M31.24,31.98h2.41c0.17,0,0.3,0.13,0.3,0.3c0,0.17-0.13,0.3-0.3,0.3h-1.91
			C31.59,32.37,31.43,32.17,31.24,31.98z M24.23,32.09H23.3c-0.17,0-0.3-0.13-0.3-0.3c0-0.17,0.13-0.3,0.3-0.3h1.59
			C24.65,31.67,24.43,31.87,24.23,32.09z M37.85,34.3c0,0.17-0.13,0.3-0.3,0.3h-5.01c-0.03-0.21-0.08-0.4-0.14-0.6h4.85v-7.08
			c0-0.17,0.13-0.3,0.3-0.3c0.17,0,0.3,0.13,0.3,0.3V34.3z M37.85,25.56c0,0.17-0.13,0.3-0.3,0.3s-0.3-0.13-0.3-0.3v-3.97h-2.81
			c-0.17,0-0.3-0.13-0.3-0.3v-2.81h-8.13v3.91c0,0.01,0.02,0.02,0.02,0.04v2.71c0,0.02-0.01,0.02-0.02,0.04v5.68
			c-0.21,0.08-0.4,0.19-0.6,0.3v-0.92H23.3c-0.17,0-0.3-0.13-0.3-0.3c0-0.17,0.13-0.3,0.3-0.3h2.11v-1.25H23.3
			c-0.17,0-0.3-0.13-0.3-0.3s0.13-0.3,0.3-0.3h2.11v-1.06v-0.6v-0.68l-2.41,0c-0.17,0-0.31-0.14-0.31-0.31v-2.71
			c0-0.08,0.03-0.16,0.09-0.22l1.36-1.33c0.12-0.12,0.32-0.12,0.44,0l0.84,0.82v-0.72v-0.46v-0.6v-0.78h-3.54v14.21h1.52
			c-0.09,0.19-0.15,0.39-0.21,0.6h-1.6c-0.17,0-0.3-0.13-0.3-0.3v-0.19h-3.56c-0.17,0-0.3-0.13-0.3-0.3v-6.23
			c0-0.17,0.13-0.3,0.3-0.3s0.3,0.13,0.3,0.3v5.93h3.26v-1.13h-1.95c-0.17,0-0.3-0.13-0.3-0.3c0-0.17,0.13-0.3,0.3-0.3h1.95v-1.13
			h-1.95c-0.17,0-0.3-0.13-0.3-0.3s0.13-0.3,0.3-0.3h1.95v-1.13h-1.95c-0.17,0-0.3-0.13-0.3-0.3c0-0.17,0.13-0.3,0.3-0.3h1.95v-0.95
			v-1.08h-2.04c-0.17,0-0.31-0.14-0.31-0.31v-2.04c0-0.08,0.03-0.16,0.09-0.22l1.02-1c0.12-0.12,0.32-0.12,0.44,0l0.8,0.78
			l-0.01-0.86c0,0,0.01,0.01,0.01,0.01v-0.69v-0.39v-0.6v-0.69h-3.26v5.93c0,0.17-0.13,0.3-0.3,0.3s-0.3-0.13-0.3-0.3v-6.23
			c0-0.17,0.13-0.3,0.3-0.3h3.56v-0.19c0-0.17,0.13-0.3,0.3-0.3h3.84v-0.36c0-0.17,0.13-0.3,0.3-0.3h8.73
			c0.08,0,0.16,0.03,0.21,0.09l3.11,3.11c0.06,0.06,0.09,0.13,0.09,0.21V25.56z"/>
	</g>
	<g>
		<path class="st1" d="M27.63,7.95c-10.77,0-19.54,8.76-19.54,19.54c0,10.77,8.76,19.54,19.54,19.54c10.77,0,19.54-8.76,19.54-19.54
			C47.17,16.71,38.4,7.95,27.63,7.95z M27.63,44.92c-9.61,0-17.43-7.82-17.43-17.43s7.82-17.43,17.43-17.43
			c9.61,0,17.43,7.82,17.43,17.43S37.24,44.92,27.63,44.92z"/>
		<path class="st1" d="M27.52,30.54c0.09,0,0.17-0.03,0.26-0.03c0.19,0,0.36,0.03,0.55,0.06h7.34c0.17,0,0.3-0.13,0.3-0.3
			c0-0.17-0.13-0.3-0.3-0.3h-8.08c-0.17,0-0.3,0.13-0.3,0.3C27.29,30.41,27.39,30.5,27.52,30.54z"/>
		<path class="st1" d="M33.95,32.28c0-0.17-0.13-0.3-0.3-0.3h-2.41c0.18,0.19,0.35,0.39,0.49,0.6h1.91
			C33.82,32.58,33.95,32.45,33.95,32.28z"/>
		<path class="st1" d="M37.55,26.62c-0.17,0-0.3,0.13-0.3,0.3V34H32.4c0.06,0.2,0.11,0.39,0.14,0.6h5.01c0.17,0,0.3-0.13,0.3-0.3
			v-7.38C37.85,26.75,37.71,26.62,37.55,26.62z"/>
		<path class="st1" d="M27.59,28.55h8.08c0.17,0,0.3-0.13,0.3-0.3s-0.13-0.3-0.3-0.3h-8.08c-0.17,0-0.3,0.13-0.3,0.3
			C27.29,28.42,27.42,28.55,27.59,28.55z"/>
		<path class="st1" d="M23,31.79c0,0.17,0.13,0.3,0.3,0.3h0.93c0.2-0.22,0.42-0.42,0.66-0.6H23.3C23.14,31.49,23,31.63,23,31.79z"/>
		<path class="st1" d="M34.65,17.97c-0.05-0.06-0.13-0.09-0.21-0.09h-8.73c-0.17,0-0.3,0.13-0.3,0.3v0.36h-3.84
			c-0.17,0-0.3,0.13-0.3,0.3v0.19h-3.56c-0.17,0-0.3,0.13-0.3,0.3v6.23c0,0.17,0.13,0.3,0.3,0.3s0.3-0.13,0.3-0.3v-5.93h3.26v0.69
			v0.6v0.39V22c0,0-0.01-0.01-0.01-0.01l0.01,0.86l-0.8-0.78c-0.12-0.12-0.32-0.12-0.44,0l-1.02,1c-0.06,0.06-0.09,0.14-0.09,0.22
			v2.04c0,0.17,0.14,0.31,0.31,0.31h2.04v1.08v0.95h-1.95c-0.17,0-0.3,0.13-0.3,0.3c0,0.17,0.13,0.3,0.3,0.3h1.95v1.13h-1.95
			c-0.17,0-0.3,0.13-0.3,0.3s0.13,0.3,0.3,0.3h1.95v1.13h-1.95c-0.17,0-0.3,0.13-0.3,0.3c0,0.17,0.13,0.3,0.3,0.3h1.95v1.13h-3.26
			v-5.93c0-0.17-0.13-0.3-0.3-0.3s-0.3,0.13-0.3,0.3v6.23c0,0.17,0.13,0.3,0.3,0.3h3.56v0.19c0,0.17,0.13,0.3,0.3,0.3h1.6
			c0.06-0.2,0.13-0.41,0.21-0.6h-1.52V19.13h3.54v0.78v0.6v0.46v0.72l-0.84-0.82c-0.12-0.12-0.32-0.12-0.44,0l-1.36,1.33
			c-0.06,0.06-0.09,0.14-0.09,0.22v2.71c0,0.17,0.14,0.31,0.31,0.31l2.41,0v0.68v0.6v1.06H23.3c-0.17,0-0.3,0.13-0.3,0.3
			s0.13,0.3,0.3,0.3h2.11v1.25H23.3c-0.17,0-0.3,0.13-0.3,0.3c0,0.17,0.13,0.3,0.3,0.3h2.11v0.92c0.19-0.11,0.39-0.22,0.6-0.3v-5.68
			c0-0.01,0.02-0.02,0.02-0.04v-2.71c0-0.01-0.01-0.02-0.02-0.04v-3.91h8.13v2.81c0,0.17,0.13,0.3,0.3,0.3h2.81v3.97
			c0,0.17,0.13,0.3,0.3,0.3s0.3-0.13,0.3-0.3v-4.27c0-0.08-0.03-0.15-0.09-0.21L34.65,17.97z M20.96,25.02h-1.42v-1.6l0.71-0.69
			l0.71,0.69V25.02z M25.4,24.83h-2.09v-2.27l1.04-1.02l1.04,1.02V24.83z M34.74,20.99V18.9l2.09,2.09H34.74z"/>
		<path class="st1" d="M27.63,25.97h3.84c0.17,0,0.31-0.14,0.31-0.31v-3.84c0-0.08-0.03-0.16-0.09-0.22l-1.92-1.88
			c-0.12-0.12-0.32-0.12-0.44,0l-1.92,1.88c-0.06,0.06-0.09,0.14-0.09,0.22v3.84C27.32,25.83,27.46,25.97,27.63,25.97z M27.94,21.96
			l1.61-1.57l1.61,1.57v3.39h-3.21V21.96z"/>
		<path class="st1" d="M29.24,33.36h-0.27c-0.21,0-0.41,0.13-0.49,0.33L28.36,34l-0.24,0.6l-0.35,0.85l-0.34-0.85L27.19,34
			l-0.13-0.31c-0.08-0.2-0.27-0.33-0.49-0.33H26.3c-0.1,0-0.2,0.04-0.28,0.1c-0.06,0.04-0.11,0.08-0.15,0.14
			c-0.1,0.15-0.12,0.33-0.05,0.49l0.21,0.51l1.15,2.78c0.08,0.2,0.27,0.33,0.49,0.33h0.24c0.21,0,0.41-0.13,0.49-0.33l1.15-2.78
			l0.21-0.51c0.01-0.03,0.01-0.06,0.01-0.09c0.03-0.14,0.02-0.28-0.06-0.41C29.58,33.45,29.42,33.36,29.24,33.36z"/>
	</g>
</g>
</svg>
