<?xml version="1.0" encoding="utf-8"?>
<!-- Generator: Adobe Illustrator 23.0.2, SVG Export Plug-In . SVG Version: 6.00 Build 0)  -->
<svg version="1.1" id="Calque_1" xmlns="http://www.w3.org/2000/svg" xmlns:xlink="http://www.w3.org/1999/xlink" x="0px" y="0px"
	 viewBox="0 0 11.28 10.31" style="enable-background:new 0 0 11.28 10.31;" xml:space="preserve">
<style type="text/css">
	.st0{fill:#FFFFFF;}
</style>
<g id="mod">
	<path class="st0" d="M7.18,6.93C7.14,6.89,7.08,6.84,7,6.84c0,0-0.01,0-0.01,0c-0.11,0.01-0.21,0.11-0.28,0.2
		C6.66,7.1,6.67,7.17,6.68,7.23c0,0.02,0,0.03,0,0.04c0,0.95,0,1.06,0,2.01c0,0.04,0,0.08,0,0.12H0.91V3.54l0.28,0
		c0.28,0,0.55,0,0.83,0C2.4,3.53,2.62,3.31,2.63,2.93c0-0.07,0-0.13,0-0.2l0-0.91h4.05v0.09c0,0.16,0,1.1,0,1.25
		c0,0.2,0.12,0.32,0.3,0.32c0,0,0.01,0,0.01,0c0.19,0,0.3-0.13,0.3-0.33l0-0.14c0-0.13,0-1.02,0-1.14C7.32,1.55,7.18,1.32,6.88,1.2
		L2.23,1.19L2.16,1.25C2.12,1.27,2.09,1.3,2.06,1.33L1.72,1.67c-0.43,0.43-0.86,0.86-1.29,1.3C0.35,3.05,0.29,3.19,0.29,3.31
		c0,1.27,0,2.55-0.01,3.82l0,2.29c0,0.28,0.13,0.48,0.41,0.61l6.18,0.01l0.02-0.01C7,9.98,7.28,9.85,7.28,9.56
		c0.01-1.06,0.01-1.33,0-2.45C7.28,7.03,7.22,6.96,7.18,6.93z M1.4,2.91L2,2.31v0.6H1.4z"/>
	<g>
		<path class="st0" d="M6.75,4.06l0.11-0.11h0L6.3,4.51C6.45,4.36,6.59,4.22,6.75,4.06z"/>
		<path class="st0" d="M4.96,6.67c0-0.01,0.01-0.01,0.01-0.03c0.06-0.24,0.13-0.48,0.2-0.73C5.17,5.93,5.16,5.94,5.16,5.96
			L4.96,6.67z"/>
		<path class="st0" d="M6.25,7.03C6.32,7.01,6.4,6.98,6.47,6.96c0.13-0.04,0.26-0.11,0.34-0.2c1.04-1.04,2.08-2.07,3.12-3.11
			l0.74-0.74C10.9,2.68,11,2.46,11,2.24c0-0.23-0.11-0.44-0.34-0.67l-0.1-0.1c-0.39-0.38-0.85-0.38-1.24,0.01
			C8.74,2.07,8.15,2.66,7.56,3.25c0,0-0.01,0-0.01,0.01l-0.7,0.7h0L6.75,4.06c-0.16,0.16-0.3,0.3-0.45,0.44L5.38,5.42
			c0,0-0.07,0.02-0.2,0.48C5.1,6.15,5.03,6.39,4.97,6.64c0,0.02-0.17,0.64-0.17,0.64L6.25,7.03z M5.63,6.56L5.7,6.31L5.87,6.5
			L5.63,6.56z M6.49,6.15L6.02,5.69L9.2,2.52l0.46,0.47L6.49,6.15z M10.23,2.49c-0.03,0.03-0.06,0.05-0.09,0.08L9.63,2.06
			C9.65,2.03,9.68,2,9.7,1.97c0.11-0.13,0.17-0.18,0.25-0.15c0.16,0.06,0.34,0.22,0.41,0.39C10.41,2.31,10.37,2.36,10.23,2.49z"/>
	</g>
</g>
</svg>
