<?xml version="1.0" encoding="utf-8"?>
<!-- Generator: Adobe Illustrator 23.0.2, SVG Export Plug-In . SVG Version: 6.00 Build 0)  -->
<svg version="1.1" id="Calque_1" xmlns="http://www.w3.org/2000/svg" xmlns:xlink="http://www.w3.org/1999/xlink" x="0px" y="0px"
	 viewBox="0 0 11.28 10.31" style="enable-background:new 0 0 11.28 10.31;" xml:space="preserve">
<style type="text/css">
	.st0{fill:#FFFFFF;}
</style>
<g id="modHover">
	<path class="st0" d="M7.18,6.09C7.14,6.06,7.08,6.01,7,6.01c0,0-0.01,0-0.01,0c-0.11,0.01-0.21,0.11-0.28,0.2
		C6.66,6.27,6.67,6.34,6.68,6.4c0,0.02,0,0.03,0,0.04c0,0.95,0,1.9,0,2.84c0,0.04,0,0.08,0,0.12H0.91V3.54l0.28,0
		c0.28,0,0.55,0,0.83,0C2.4,3.53,2.62,3.31,2.63,2.93c0-0.07,0-0.13,0-0.2l0-0.91h4.05v0.09c0,0.16,0,0.32,0,0.48
		c0,0.2,0.12,0.32,0.3,0.32c0,0,0.01,0,0.01,0c0.19,0,0.3-0.13,0.3-0.33l0-0.14c0-0.13,0-0.25,0-0.37C7.32,1.55,7.18,1.32,6.88,1.2
		L2.23,1.19L2.16,1.25C2.12,1.27,2.09,1.3,2.06,1.33L1.72,1.67c-0.43,0.43-0.86,0.86-1.29,1.3C0.35,3.05,0.29,3.19,0.29,3.31
		c0,1.27,0,2.55-0.01,3.82l0,2.29c0,0.28,0.13,0.48,0.41,0.61l6.18,0.01l0.02-0.01C7,9.98,7.28,9.85,7.28,9.56
		c0.01-1.06,0.01-2.16,0-3.29C7.28,6.2,7.22,6.13,7.18,6.09z M1.4,2.91L2,2.31v0.6H1.4z"/>
	<path class="st0" d="M8.56,2.81l-0.1-0.1C8.07,2.34,7.62,2.34,7.23,2.73C6.64,3.31,6.05,3.9,5.46,4.49C5.39,4.57,5.32,4.6,5.22,4.6
		c0,0,0,0,0,0c-0.8,0-1.6,0-2.4,0l-0.64,0c-0.02,0-0.03,0-0.05,0c-0.07,0-0.14-0.01-0.21,0.03c0,0-0.22,0.13-0.2,0.28
		c0.01,0.11,0.11,0.2,0.2,0.27C1.98,5.21,2.04,5.21,2.09,5.2c0.01,0,0.03,0,0.04,0h2.62L4.65,5.3C4.32,5.63,4.02,5.93,3.71,6.23
		C3.7,6.24,3.65,6.26,3.57,6.26c-0.49,0.01-0.97,0-1.46,0c-0.1,0-0.21,0.01-0.28,0.08C1.76,6.41,1.68,6.58,1.74,6.68
		c0.06,0.09,0.19,0.19,0.31,0.2c0.3,0.01,0.59,0.01,0.9,0.01l0.19,0L3.1,7.06C3.02,7.33,2.94,7.61,2.87,7.88
		c-0.02,0.07-0.02,0.08-0.1,0.07c-0.22-0.01-0.44,0-0.66,0l-0.09,0c-0.1,0-0.19,0.04-0.24,0.1C1.73,8.11,1.71,8.18,1.72,8.26
		c0.01,0.11,0.14,0.27,0.27,0.27l0.14,0c0.08,0,0.17,0,0.26,0c0.31,0,0.62-0.01,0.93-0.05C3.6,8.45,3.88,8.36,4.15,8.27
		C4.22,8.25,4.29,8.23,4.36,8.2C4.49,8.16,4.62,8.09,4.71,8c1.04-1.04,2.08-2.07,3.12-3.11l0.74-0.74C8.79,3.92,8.9,3.7,8.9,3.48
		C8.9,3.26,8.79,3.04,8.56,2.81z M3.77,7.74L3.53,7.81L3.6,7.55L3.77,7.74z M8.13,3.73C8.1,3.76,8.07,3.78,8.04,3.81L7.53,3.3
		C7.55,3.27,7.58,3.24,7.6,3.21c0.11-0.13,0.17-0.18,0.25-0.15c0.16,0.06,0.34,0.22,0.41,0.39C8.31,3.55,8.26,3.61,8.13,3.73z
		 M7.55,4.23L4.39,7.4L3.92,6.93L7.1,3.76L7.55,4.23z"/>
</g>
</svg>
