<?xml version="1.0" encoding="utf-8"?>
<!-- Generator: Adobe Illustrator 23.0.2, SVG Export Plug-In . SVG Version: 6.00 Build 0)  -->
<svg version="1.1" id="option" xmlns="http://www.w3.org/2000/svg" xmlns:xlink="http://www.w3.org/1999/xlink" x="0px" y="0px"
	 viewBox="0 0 55 55" style="enable-background:new 0 0 55 55;" xml:space="preserve">
<style type="text/css">
	.st0{fill:#FFFFFF;}
	.st1{fill:#2D4F61;}
</style>
<g>
	<path class="st0" d="M27.47,10.11c-9.61,0-17.43,7.82-17.43,17.43s7.82,17.43,17.43,17.43s17.43-7.82,17.43-17.43
		S37.08,10.11,27.47,10.11z M28.1,17.33h0.65c0.32,0,0.58,0.26,0.58,0.58l0,1.1c0.92,0.21,1.79,0.57,2.59,1.07l0.78-0.78
		c0.22-0.22,0.59-0.22,0.81,0l1.75,1.75c0.22,0.22,0.22,0.59,0,0.81l-0.78,0.78c0.51,0.8,0.87,1.67,1.07,2.59h1.1
		c0.32,0,0.58,0.26,0.58,0.58v0.56c0,0.16-0.13,0.29-0.29,0.29s-0.29-0.13-0.29-0.29l0-0.56c0,0,0-0.01-0.01-0.01h-1.34
		c-0.14,0-0.25-0.1-0.28-0.23c-0.2-1.01-0.59-1.96-1.16-2.81c-0.08-0.11-0.06-0.26,0.03-0.36l0.95-0.95c0,0,0-0.01,0-0.01
		l-1.75-1.75c0,0-0.01,0-0.01,0l-0.95,0.95c-0.1,0.1-0.25,0.11-0.36,0.03c-0.86-0.58-1.8-0.97-2.81-1.16
		c-0.13-0.03-0.23-0.14-0.23-0.28v-1.34c0,0,0-0.01-0.01-0.01H28.1c-0.16,0-0.29-0.13-0.29-0.29C27.82,17.46,27.94,17.33,28.1,17.33
		z M27.51,21.66c2.98,0,5.4,2.42,5.4,5.4c0,1.87-0.95,3.52-2.4,4.49c-0.18-0.14-0.37-0.25-0.57-0.36c1.42-0.84,2.38-2.36,2.38-4.12
		c0-2.65-2.16-4.8-4.8-4.8s-4.8,2.16-4.8,4.8c0,1.8,1.01,3.36,2.48,4.18c-0.2,0.11-0.38,0.24-0.56,0.38
		c-1.51-0.96-2.52-2.64-2.52-4.56C22.11,24.08,24.54,21.66,27.51,21.66z M29.33,35.18l-0.66,1.62l-0.46,1.12
		c-0.08,0.2-0.27,0.33-0.49,0.33h-0.24c-0.21,0-0.41-0.13-0.49-0.33l-0.46-1.12l-0.23-0.57l-0.04-0.09l-0.63-1.52
		c-0.01-0.04-0.01-0.08-0.02-0.11c-0.02-0.13-0.01-0.27,0.07-0.38c0.1-0.15,0.26-0.23,0.44-0.23h0.28c0.21,0,0.41,0.13,0.49,0.33
		l0.71,1.76l0.72-1.76c0.08-0.2,0.27-0.33,0.49-0.33h0.27c0.18,0,0.34,0.09,0.44,0.23c0.07,0.1,0.08,0.22,0.07,0.34
		c0,0.05,0,0.11-0.02,0.16l-0.2,0.49L29.33,35.18z M21.51,34.82l-1.75-1.75c-0.22-0.22-0.22-0.59,0-0.81l0.78-0.78
		c-0.51-0.8-0.87-1.67-1.07-2.59h-1.1c-0.32,0-0.58-0.26-0.58-0.58l0-2.48c0-0.32,0.26-0.58,0.58-0.58h1.1
		c0.21-0.92,0.57-1.79,1.07-2.59l-0.78-0.78c-0.22-0.22-0.22-0.59,0-0.81l1.75-1.75c0.11-0.11,0.25-0.17,0.41-0.17
		s0.3,0.06,0.41,0.17l0.78,0.78c0.8-0.51,1.67-0.87,2.59-1.07v-1.1c0-0.32,0.26-0.58,0.58-0.58h0.5c0.16,0,0.29,0.13,0.29,0.29
		c0,0.16-0.13,0.29-0.29,0.29h-0.5c0,0-0.01,0-0.01,0.01l0,1.34c0,0.14-0.1,0.25-0.23,0.28c-1.01,0.2-1.96,0.59-2.81,1.17
		c-0.11,0.08-0.26,0.06-0.36-0.03l-0.95-0.95c0,0-0.01,0-0.01,0l-1.75,1.75c0,0,0,0.01,0,0.01l0.95,0.95
		c0.1,0.1,0.11,0.25,0.03,0.36c-0.58,0.86-0.97,1.8-1.16,2.81c-0.03,0.13-0.14,0.23-0.28,0.23h-1.34c0,0-0.01,0-0.01,0.01l0,2.48
		c0,0,0,0.01,0.01,0.01h1.34c0.14,0,0.25,0.1,0.28,0.23c0.2,1.01,0.59,1.96,1.16,2.81c0.08,0.11,0.06,0.26-0.03,0.36l-0.95,0.95
		c0,0,0,0.01,0,0.01l1.75,1.75c0,0,0.01,0,0.01,0l0.95-0.95c0.09-0.09,0.23-0.1,0.35-0.04c-0.11,0.24-0.19,0.49-0.25,0.75
		l-0.63,0.63C22.1,35.05,21.74,35.05,21.51,34.82z M37.25,28.3c0,0.32-0.26,0.58-0.58,0.58h-1.1c-0.21,0.92-0.57,1.79-1.07,2.59
		l0.78,0.78c0.22,0.22,0.22,0.59,0,0.81l-1.75,1.75c-0.22,0.22-0.59,0.22-0.81,0l-0.35-0.35c-0.07-0.38-0.2-0.74-0.35-1.08
		c0.06,0.01,0.11,0.03,0.16,0.07l0.95,0.95c0,0,0.01,0,0.01,0l1.75-1.75c0,0,0-0.01,0-0.01l-0.95-0.95c-0.1-0.1-0.11-0.25-0.03-0.36
		c0.58-0.86,0.97-1.8,1.16-2.81c0.03-0.13,0.14-0.23,0.28-0.23l1.34,0c0,0,0.01,0,0.01-0.01l0-0.59c0-0.16,0.13-0.29,0.29-0.29
		c0.16,0,0.29,0.13,0.29,0.29V28.3z"/>
	<g>
		<path class="st1" d="M27.47,8C16.7,8,7.93,16.77,7.93,27.54c0,10.77,8.76,19.54,19.54,19.54c10.77,0,19.54-8.76,19.54-19.54
			C47.01,16.77,38.24,8,27.47,8z M27.47,44.98c-9.61,0-17.43-7.82-17.43-17.43s7.82-17.43,17.43-17.43s17.43,7.82,17.43,17.43
			S37.08,44.98,27.47,44.98z"/>
		<path class="st1" d="M28.1,17.9h0.65c0,0,0.01,0,0.01,0.01v1.34c0,0.14,0.1,0.25,0.23,0.28c1.01,0.2,1.96,0.59,2.81,1.16
			c0.11,0.08,0.26,0.06,0.36-0.03l0.95-0.95c0,0,0.01,0,0.01,0l1.75,1.75c0,0,0,0.01,0,0.01l-0.95,0.95
			c-0.1,0.1-0.11,0.25-0.03,0.36c0.58,0.86,0.97,1.8,1.16,2.81c0.03,0.13,0.14,0.23,0.28,0.23h1.34c0,0,0.01,0,0.01,0.01l0,0.56
			c0,0.16,0.13,0.29,0.29,0.29s0.29-0.13,0.29-0.29v-0.56c0-0.32-0.26-0.58-0.58-0.58h-1.1c-0.21-0.92-0.57-1.79-1.07-2.59
			l0.78-0.78c0.22-0.22,0.22-0.59,0-0.81l-1.75-1.75c-0.22-0.22-0.59-0.22-0.81,0l-0.78,0.78c-0.8-0.51-1.67-0.87-2.59-1.07l0-1.1
			c0-0.32-0.26-0.58-0.58-0.58H28.1c-0.16,0-0.29,0.13-0.28,0.29C27.82,17.77,27.94,17.9,28.1,17.9z"/>
		<path class="st1" d="M36.96,27.43c-0.16,0-0.29,0.13-0.29,0.29l0,0.59c0,0,0,0.01-0.01,0.01l-1.34,0c-0.14,0-0.25,0.1-0.28,0.23
			c-0.2,1.01-0.59,1.96-1.16,2.81c-0.08,0.11-0.06,0.26,0.03,0.36l0.95,0.95c0,0,0,0.01,0,0.01l-1.75,1.75c0,0-0.01,0-0.01,0
			l-0.95-0.95c-0.04-0.04-0.1-0.06-0.16-0.07c0.16,0.34,0.28,0.7,0.35,1.08l0.35,0.35c0.22,0.22,0.59,0.22,0.81,0l1.75-1.75
			c0.22-0.22,0.22-0.59,0-0.81l-0.78-0.78c0.51-0.8,0.87-1.67,1.07-2.59h1.1c0.32,0,0.58-0.26,0.58-0.58v-0.59
			C37.25,27.56,37.12,27.43,36.96,27.43z"/>
		<path class="st1" d="M22.87,33.47l-0.95,0.95c0,0-0.01,0-0.01,0l-1.75-1.75c0,0,0-0.01,0-0.01l0.95-0.95
			c0.1-0.1,0.11-0.25,0.03-0.36c-0.58-0.86-0.97-1.8-1.16-2.81c-0.03-0.13-0.14-0.23-0.28-0.23h-1.34c0,0-0.01,0-0.01-0.01l0-2.48
			c0,0,0-0.01,0.01-0.01h1.34c0.14,0,0.25-0.1,0.28-0.23c0.2-1.01,0.59-1.96,1.16-2.81c0.08-0.11,0.06-0.26-0.03-0.36l-0.95-0.95
			c0,0,0-0.01,0-0.01l1.75-1.75c0,0,0.01,0,0.01,0l0.95,0.95c0.1,0.1,0.25,0.11,0.36,0.03c0.86-0.58,1.8-0.97,2.81-1.17
			c0.13-0.03,0.23-0.14,0.23-0.28l0-1.34c0,0,0-0.01,0.01-0.01h0.5c0.16,0,0.29-0.13,0.29-0.29c0-0.16-0.13-0.29-0.29-0.29h-0.5
			c-0.32,0-0.58,0.26-0.58,0.58v1.1c-0.92,0.21-1.79,0.57-2.59,1.07l-0.78-0.78c-0.11-0.11-0.25-0.17-0.41-0.17s-0.3,0.06-0.41,0.17
			l-1.75,1.75c-0.22,0.22-0.22,0.59,0,0.81l0.78,0.78c-0.51,0.8-0.87,1.67-1.07,2.59h-1.1c-0.32,0-0.58,0.26-0.58,0.58l0,2.48
			c0,0.32,0.26,0.58,0.58,0.58h1.1c0.21,0.92,0.57,1.79,1.07,2.59l-0.78,0.78c-0.22,0.22-0.22,0.59,0,0.81l1.75,1.75
			c0.22,0.22,0.59,0.22,0.81,0l0.63-0.63c0.07-0.26,0.15-0.51,0.25-0.75C23.1,33.37,22.96,33.38,22.87,33.47z"/>
		<path class="st1" d="M27.51,21.66c-2.98,0-5.4,2.42-5.4,5.4c0,1.92,1.01,3.6,2.52,4.56c0.18-0.14,0.36-0.27,0.56-0.38
			c-1.47-0.82-2.48-2.38-2.48-4.18c0-2.65,2.15-4.8,4.8-4.8s4.8,2.16,4.8,4.8c0,1.76-0.96,3.29-2.38,4.12
			c0.2,0.11,0.39,0.23,0.57,0.36c1.45-0.97,2.4-2.62,2.4-4.49C32.91,24.08,30.49,21.66,27.51,21.66z"/>
		<path class="st1" d="M29.08,33.89h-0.27c-0.21,0-0.41,0.13-0.49,0.33l-0.72,1.76l-0.71-1.76c-0.08-0.2-0.27-0.33-0.49-0.33h-0.28
			c-0.18,0-0.34,0.09-0.44,0.23c-0.08,0.11-0.09,0.25-0.07,0.38c0.01,0.04,0,0.08,0.02,0.11l0.63,1.52l0.04,0.09l0.23,0.57L27,37.91
			c0.08,0.2,0.27,0.33,0.49,0.33h0.24c0.21,0,0.41-0.13,0.49-0.33l0.46-1.12l0.66-1.62l0.03-0.07l0.2-0.49
			c0.02-0.05,0.02-0.1,0.02-0.16c0.01-0.12-0.01-0.23-0.07-0.34C29.42,33.98,29.25,33.89,29.08,33.89z"/>
	</g>
</g>
</svg>
