<?xml version="1.0" encoding="utf-8"?>
<!-- Generator: Adobe Illustrator 23.0.2, SVG Export Plug-In . SVG Version: 6.00 Build 0)  -->
<svg version="1.1" id="Calque_1" xmlns="http://www.w3.org/2000/svg" xmlns:xlink="http://www.w3.org/1999/xlink" x="0px" y="0px"
	 viewBox="0 0 11.28 10.31" style="enable-background:new 0 0 11.28 10.31;" xml:space="preserve">
<style type="text/css">
	.st0{fill:#FFFFFF;}
</style>
<g id="suppHov">
	<path class="st0" d="M9.87,2.73L8.7,2.17l0.12-0.25c0.18-0.39,0.02-0.85-0.36-1.03L7.53,0.44C7.14,0.26,6.68,0.42,6.49,0.8
		L6.37,1.05L5.21,0.5C4.82,0.31,4.36,0.47,4.18,0.86L3.95,1.33C3.89,1.45,3.95,1.61,4.07,1.67l0.25,0.12l0.47,0.22L8.94,4l0.47,0.22
		l0.25,0.12c0.13,0.06,0.28,0.01,0.34-0.12l0.22-0.47C10.42,3.37,10.25,2.91,9.87,2.73z M6.96,1.03C7.02,0.9,7.17,0.84,7.3,0.91
		l0.93,0.45C8.36,1.41,8.42,1.57,8.36,1.7L8.24,1.95l-1.4-0.67L6.96,1.03z M9.65,3.77L4.53,1.32l0.11-0.23
		C4.7,0.95,4.86,0.9,4.99,0.96l4.66,2.23c0.13,0.06,0.18,0.22,0.12,0.34L9.65,3.77z"/>
	<g>
		<path class="st0" d="M5.64,9.01c0.14,0,0.26-0.12,0.26-0.26V4.6c0-0.14-0.12-0.26-0.26-0.26c-0.14,0-0.26,0.12-0.26,0.26v4.15
			C5.38,8.89,5.5,9.01,5.64,9.01z"/>
		<path class="st0" d="M6.67,9.01c0.14,0,0.26-0.12,0.26-0.26V4.6c0-0.14-0.12-0.26-0.26-0.26S6.42,4.46,6.42,4.6v4.15
			C6.42,8.89,6.53,9.01,6.67,9.01z"/>
		<path class="st0" d="M4.61,9.01c0.14,0,0.26-0.12,0.26-0.26V4.6c0-0.14-0.12-0.26-0.26-0.26c-0.14,0-0.26,0.12-0.26,0.26v4.15
			C4.35,8.89,4.47,9.01,4.61,9.01z"/>
		<g>
			<polygon class="st0" points="8.42,4.35 8.46,3.83 8.46,3.83 			"/>
			<path class="st0" d="M8.42,4.35l0.04-0.53h0l0.04-0.52H8.48H2.8H2.77l0.04,0.52h0.01l0.46,5.5c0.03,0.4,0.37,0.71,0.77,0.71h3.18
				c0.4,0,0.74-0.31,0.77-0.71l0.41-4.96l0,0L8.42,4.35z M7.49,9.29C7.48,9.42,7.37,9.52,7.23,9.52H4.05c-0.13,0-0.25-0.1-0.26-0.24
				L3.34,3.83h4.6L7.49,9.29z"/>
			<polygon class="st0" points="8.42,4.37 8.42,4.37 8.42,4.35 			"/>
		</g>
	</g>
</g>
</svg>
