<?xml version="1.0" encoding="utf-8"?>
<!-- Generator: Adobe Illustrator 23.0.2, SVG Export Plug-In . SVG Version: 6.00 Build 0)  -->
<svg version="1.1" id="Calque_1" xmlns="http://www.w3.org/2000/svg" xmlns:xlink="http://www.w3.org/1999/xlink" x="0px" y="0px"
	 viewBox="0 0 11.28 10.31" style="enable-background:new 0 0 11.28 10.31;" xml:space="preserve">
<style type="text/css">
	.st0{fill:#FFFFFF;}
</style>
<g id="Supp">
	<g>
		<g>
			<path class="st0" d="M8.23,2.28H6.94V2c0-0.43-0.35-0.77-0.77-0.77H5.13C4.7,1.23,4.36,1.57,4.36,2v0.28H3.07
				c-0.43,0-0.77,0.35-0.77,0.77v0.52c0,0.14,0.12,0.26,0.26,0.26h0.28l0.46,5.5c0.03,0.4,0.37,0.71,0.77,0.71h3.18
				c0.4,0,0.74-0.31,0.77-0.71l0.46-5.5h0.28C8.89,3.83,9,3.71,9,3.57V3.05C9,2.62,8.66,2.28,8.23,2.28z M4.87,2
				c0-0.14,0.12-0.26,0.26-0.26h1.03c0.14,0,0.26,0.12,0.26,0.26v0.28H4.87V2z M7.5,9.29C7.48,9.42,7.37,9.52,7.24,9.52H4.06
				c-0.13,0-0.25-0.1-0.26-0.24L3.35,3.83h4.6L7.5,9.29z M8.49,3.31H2.81V3.05c0-0.14,0.12-0.26,0.26-0.26h5.16
				c0.14,0,0.26,0.12,0.26,0.26V3.31z"/>
		</g>
	</g>
	<g>
		<g>
			<path class="st0" d="M5.65,4.34c-0.14,0-0.26,0.12-0.26,0.26v4.15c0,0.14,0.12,0.26,0.26,0.26c0.14,0,0.26-0.12,0.26-0.26V4.6
				C5.91,4.46,5.79,4.34,5.65,4.34z"/>
		</g>
	</g>
	<g>
		<g>
			<path class="st0" d="M6.68,4.34c-0.14,0-0.26,0.12-0.26,0.26v4.15c0,0.14,0.12,0.26,0.26,0.26s0.26-0.12,0.26-0.26V4.6
				C6.94,4.46,6.82,4.34,6.68,4.34z"/>
		</g>
	</g>
	<g>
		<g>
			<path class="st0" d="M4.61,4.34c-0.14,0-0.26,0.12-0.26,0.26v4.15c0,0.14,0.12,0.26,0.26,0.26c0.14,0,0.26-0.12,0.26-0.26V4.6
				C4.87,4.46,4.76,4.34,4.61,4.34z"/>
		</g>
	</g>
</g>
</svg>
