<?xml version="1.0" encoding="utf-8"?>
<!-- Generator: Adobe Illustrator 23.0.2, SVG Export Plug-In . SVG Version: 6.00 Build 0)  -->
<svg version="1.1" id="Calque_1" xmlns="http://www.w3.org/2000/svg" xmlns:xlink="http://www.w3.org/1999/xlink" x="0px" y="0px"
	 viewBox="0 0 31.17 30.39" style="enable-background:new 0 0 31.17 30.39;" xml:space="preserve">
<style type="text/css">
	.st0{fill:#E51E39;}
</style>
<path class="st0" d="M15.76,16.97c1.49,1.27,3.18,2.04,4.78,2.97c1.47,0.85,2.44,2.02,2.45,3.83c0.01,2.41-1.56,3.56-3.78,2.58
	c-2.32-1.03-4.4-2.51-6.27-4.21c-1.06-0.97-1.61-0.85-2.32,0.26c-0.83,1.3-1.74,2.55-2.66,3.8c-0.42,0.57-0.87,1.26-1.73,1.04
	c-0.89-0.23-1.12-1.04-1.2-1.82c-0.23-2.31,0.88-4.23,2.13-5.98c0.91-1.27,1.06-2.13-0.05-3.37c-1.35-1.5-2.14-3.39-2.73-5.33
	C4.17,10.01,4,9.25,4.28,8.47c0.23-0.64,0.46-1.34,1.21-1.46C6.14,6.91,6.47,7.5,6.8,7.95c1.21,1.61,2.51,3.13,3.85,4.64
	c0.74,0.84,1.16,0.95,1.99,0.03c2.6-2.87,5.46-5.48,8.64-7.71c0.38-0.27,0.77-0.52,1.16-0.77c1.83-1.15,3.05-1.19,3.91-0.16
	c0.88,1.06,0.74,3.18-0.39,4.44c-0.54,0.61-1.22,1.11-1.88,1.59C21.16,12.14,18.37,14.41,15.76,16.97z"/>
</svg>
