<?xml version="1.0" encoding="UTF-8" standalone="no"?>
<!DOCTYPE svg PUBLIC "-//W3C//DTD SVG 1.1//EN" "http://www.w3.org/Graphics/SVG/1.1/DTD/svg11.dtd">
<svg width="100%" height="100%" viewBox="0 0 50 50" version="1.1" xmlns="http://www.w3.org/2000/svg" xmlns:xlink="http://www.w3.org/1999/xlink" xml:space="preserve" xmlns:serif="http://www.serif.com/" style="fill-rule:evenodd;clip-rule:evenodd;stroke-linejoin:round;stroke-miterlimit:2;">
    <g transform="matrix(1,0,0,1,-496.578,-509.562)">
        <g transform="matrix(8.33333,0,0,8.33333,0,0)">
            <g transform="matrix(1,0,0,1,62.5854,62.4874)">
                <path d="M0,3.32C-0.529,2.791 -1.291,2.078 -1.291,1.365C-1.291,0.653 -0.712,0.075 0,0.075C0.713,0.075 1.291,0.653 1.291,1.365C1.291,2.078 0.452,2.868 0,3.32M2.759,0.497C2.601,0.132 2.385,-0.185 2.114,-0.457C1.842,-0.729 1.524,-0.944 1.16,-1.102C0.796,-1.26 0.408,-1.34 -0.004,-1.34C-0.415,-1.34 -0.803,-1.26 -1.167,-1.102C-1.532,-0.944 -1.848,-0.729 -2.117,-0.457C-2.386,-0.185 -2.6,0.132 -2.758,0.497C-2.917,0.861 -2.996,1.249 -2.996,1.66C-2.996,2.072 -2.917,2.46 -2.758,2.824C-2.6,3.188 -2.386,3.506 -2.117,3.778C-1.848,4.049 -1.532,4.265 -1.167,4.423C-0.803,4.581 -0.415,4.66 -0.004,4.66C0.408,4.66 0.796,4.581 1.16,4.423C1.524,4.265 1.842,4.049 2.114,3.778C2.385,3.506 2.601,3.188 2.759,2.824C2.917,2.46 2.996,2.072 2.996,1.66C2.996,1.249 2.917,0.861 2.759,0.497" style="fill:#de4c41;fill-rule:nonzero;"/>
            </g>
        </g>
    </g>
</svg>
