<?xml version="1.0" encoding="UTF-8" standalone="no"?>
<!DOCTYPE svg PUBLIC "-//W3C//DTD SVG 1.1//EN" "http://www.w3.org/Graphics/SVG/1.1/DTD/svg11.dtd">
<svg width="100%" height="100%" viewBox="0 0 667 165" version="1.1" xmlns="http://www.w3.org/2000/svg" xmlns:xlink="http://www.w3.org/1999/xlink" xml:space="preserve" xmlns:serif="http://www.serif.com/" style="fill-rule:evenodd;clip-rule:evenodd;stroke-linejoin:round;stroke-miterlimit:2;">
    <g transform="matrix(1,0,0,1,-443.111,-231.665)">
        <g transform="matrix(8.33333,0,0,8.33333,0,0)">
            <g transform="matrix(1,0,0,1,79.2598,28.7399)">
                <path d="M0,17.901C0.034,18.041 0.13,18.175 0.286,18.307C0.443,18.437 0.617,18.502 0.808,18.502L4.175,18.502C4.367,18.502 4.54,18.445 4.697,18.332C4.854,18.219 4.958,18.076 5.011,17.901L7.881,9.212C7.933,9.038 8.024,8.951 8.155,8.951C8.286,8.951 8.376,9.038 8.429,9.212L11.299,17.901C11.352,18.076 11.456,18.219 11.612,18.332C11.77,18.445 11.942,18.502 12.134,18.502L15.501,18.502C15.692,18.502 15.866,18.445 16.022,18.332C16.179,18.219 16.292,18.076 16.362,17.901L22.676,0.078C22.729,-0.079 22.721,-0.23 22.651,-0.379C22.582,-0.526 22.447,-0.266 22.256,-0.266L18.032,-0.601C17.84,-0.601 17.667,-0.543 17.51,-0.431C17.354,-0.317 17.241,-0.183 17.171,-0.026L14.17,8.715C14.101,8.89 14,8.977 13.87,8.977C13.74,8.977 13.647,8.89 13.596,8.715L10.725,-0C10.672,-0.174 10.569,-0.317 10.412,-0.431C10.256,-0.543 10.082,-0.601 9.89,-0.601L6.419,-0.601C6.228,-0.601 6.054,-0.543 5.897,-0.431C5.74,-0.317 5.636,-0.174 5.584,-0L2.713,8.664C2.662,8.838 2.57,8.924 2.439,8.924C2.309,8.924 2.218,8.838 2.166,8.664L-0.81,-0.026C-0.861,-0.183 -0.966,-0.317 -1.123,-0.431C-1.279,-0.543 -1.445,-0.601 -1.618,-0.601L-5.872,-0.601C-6.063,-0.601 -6.197,-0.526 -6.276,-0.379C-6.354,-0.23 -6.35,-0.052 -6.264,0.157L0,17.901Z" style="fill:rgb(217,65,53);fill-rule:nonzero;"/>
            </g>
        </g>
        <g transform="matrix(8.33333,0,0,8.33333,0,0)">
            <g transform="matrix(1,0,0,1,103.185,28.7158)">
                <path d="M0,17.926C0.035,18.065 0.13,18.2 0.288,18.33C0.443,18.462 0.617,18.525 0.809,18.525L4.175,18.525C4.367,18.525 4.541,18.469 4.698,18.357C4.854,18.243 4.958,18.1 5.011,17.926L7.882,9.236C7.933,9.062 8.024,8.974 8.156,8.974C8.286,8.974 8.376,9.062 8.43,9.236L11.299,17.926C11.352,18.1 11.457,18.243 11.614,18.357C11.77,18.469 11.943,18.525 12.134,18.525L15.501,18.525C15.692,18.525 15.866,18.469 16.022,18.357C16.18,18.243 16.292,18.1 16.363,17.926L22.677,0.101C22.729,-0.054 22.721,-0.207 22.651,-0.354C22.582,-0.502 22.451,-0.576 22.26,-0.576L18.032,-0.576C17.84,-0.576 17.667,-0.52 17.51,-0.407C17.354,-0.294 17.241,-0.159 17.172,-0.003L14.17,8.74C14.101,8.914 14,9 13.87,9C13.74,9 13.648,8.914 13.596,8.74L10.726,0.024C10.672,-0.15 10.569,-0.294 10.412,-0.407C10.256,-0.52 10.082,-0.576 9.89,-0.576L6.42,-0.576C6.228,-0.576 6.054,-0.52 5.898,-0.407C5.741,-0.294 5.636,-0.15 5.584,0.024L2.714,8.687C2.662,8.863 2.57,8.948 2.44,8.948C2.31,8.948 2.219,8.863 2.166,8.687L-0.81,-0.003C-0.861,-0.159 -0.965,-0.294 -1.123,-0.407C-1.279,-0.52 -1.444,-0.576 -1.618,-0.576L-5.84,-0.576C-6.031,-0.576 -6.645,-0.599 -6.868,0.329L0,17.926Z" style="fill:rgb(45,75,95);fill-rule:nonzero;"/>
            </g>
        </g>
        <g transform="matrix(8.33333,0,0,8.33333,0,0)">
            <g transform="matrix(1,0,0,1,132.991,28.3487)">
                <path d="M0,13.424C0.122,13.302 0.182,13.155 0.182,12.98L0.182,0.443C0.182,0.27 0.122,0.121 0,0C-0.122,-0.122 -0.268,-0.183 -0.441,-0.183L-4.362,-0.183C-4.552,-0.183 -4.704,-0.122 -4.816,0C-4.928,0.121 -4.985,0.27 -4.985,0.443L-4.985,12.98C-4.985,13.155 -4.928,13.302 -4.816,13.424C-4.704,13.547 -4.552,13.607 -4.362,13.607L-0.441,13.607C-0.268,13.607 -0.122,13.547 0,13.424" style="fill:rgb(45,75,95);fill-rule:nonzero;"/>
            </g>
        </g>
        <g transform="matrix(8.33333,0,0,8.33333,0,0)">
            <g transform="matrix(1,0,0,1,132.991,43.3473)">
                <path d="M0,3.712C0.122,3.59 0.182,3.441 0.182,3.269L0.182,0.443C0.182,0.27 0.122,0.123 0,0C-0.122,-0.122 -0.268,-0.182 -0.441,-0.182L-4.362,-0.182C-4.552,-0.182 -4.704,-0.122 -4.816,0C-4.928,0.123 -4.985,0.27 -4.985,0.443L-4.985,3.269C-4.985,3.441 -4.928,3.59 -4.816,3.712C-4.704,3.834 -4.552,3.894 -4.362,3.894L-0.441,3.894C-0.268,3.894 -0.122,3.834 0,3.712" style="fill:rgb(45,75,95);fill-rule:nonzero;"/>
            </g>
        </g>
        <g transform="matrix(8.33333,0,0,8.33333,0,0)">
            <g transform="matrix(1,0,0,1,63.0503,32.2178)">
                <path d="M0,10.945C-1.744,9.2 -4.254,6.851 -4.254,4.501C-4.254,2.151 -2.35,0.247 0,0.247C2.35,0.247 4.255,2.151 4.255,4.501C4.255,6.851 1.491,9.454 0,10.945M9.095,1.636C8.573,0.436 7.863,-0.612 6.968,-1.509C6.071,-2.404 5.024,-3.113 3.823,-3.635C2.623,-4.156 1.344,-4.418 -0.014,-4.418C-1.37,-4.418 -2.648,-4.156 -3.849,-3.635C-5.049,-3.113 -6.093,-2.404 -6.981,-1.509C-7.868,-0.612 -8.573,0.436 -9.094,1.636C-9.616,2.836 -9.877,4.115 -9.877,5.472C-9.877,6.83 -9.616,8.109 -9.094,9.309C-8.573,10.509 -7.868,11.558 -6.981,12.453C-6.093,13.35 -5.049,14.058 -3.849,14.58C-2.648,15.102 -1.37,15.363 -0.014,15.363C1.344,15.363 2.623,15.102 3.823,14.58C5.024,14.058 6.071,13.35 6.968,12.453C7.863,11.558 8.573,10.509 9.095,9.309C9.617,8.109 9.878,6.83 9.878,5.472C9.878,4.115 9.617,2.836 9.095,1.636" style="fill:rgb(217,65,53);fill-rule:nonzero;"/>
            </g>
        </g>
    </g>
</svg>
