<?xml version="1.0" encoding="utf-8"?>
<!-- Generator: Adobe Illustrator 24.3.0, SVG Export Plug-In . SVG Version: 6.00 Build 0)  -->
<svg version="1.1" id="Capa_1" xmlns="http://www.w3.org/2000/svg" xmlns:xlink="http://www.w3.org/1999/xlink" x="0px" y="0px"
	 viewBox="0 0 23.3 17.9" style="enable-background:new 0 0 23.3 17.9;" xml:space="preserve">
<style type="text/css">
	.st0{fill:#BCBCBB;}
</style>
<g>
	<g>
		<path class="st0" d="M16.9,13.6l-3.1-3.1c0.6-0.7,1-1.7,1-2.7c0-2.4-1.9-4.3-4.3-4.3S6.2,5.5,6.2,7.8s1.9,4.3,4.3,4.3
			c1,0,2-0.4,2.7-1l3.1,3.1c0.1,0.1,0.2,0.1,0.3,0.1s0.2,0,0.3-0.1C17.1,14.1,17.1,13.8,16.9,13.6z M10.5,11.2
			c-1.9,0-3.4-1.5-3.4-3.4s1.5-3.4,3.4-3.4s3.4,1.5,3.4,3.4S12.4,11.2,10.5,11.2z"/>
	</g>
</g>
</svg>
