<?xml version="1.0" encoding="utf-8"?>
<!-- Generator: Adobe Illustrator 23.0.2, SVG Export Plug-In . SVG Version: 6.00 Build 0)  -->
<svg version="1.1" id="Calque_1" xmlns="http://www.w3.org/2000/svg" xmlns:xlink="http://www.w3.org/1999/xlink" x="0px" y="0px"
	 viewBox="0 0 31.17 30.39" style="enable-background:new 0 0 31.17 30.39;" xml:space="preserve">
<style type="text/css">
	.st0{fill:#81B29A;}
</style>
<path class="st0" d="M9.57,21.23c2.83-6.59,6.83-12,12-16.55c1.24-1.09,2.53-2.12,3.98-2.92c0.92-0.51,1.94-0.92,2.89-0.18
	c0.91,0.7,0.96,1.75,0.81,2.82c-0.19,1.42-1.02,2.45-2.04,3.35c-1.74,1.53-3.59,2.95-5.24,4.57c-4.35,4.27-7.63,9.28-9.85,14.97
	c-0.35,0.89-0.62,1.91-1.83,2.06c-1.21,0.15-1.71-0.76-2.27-1.55c-1.56-2.17-3.13-4.34-4.66-6.53c-0.92-1.31-1.83-2.65-1.57-4.38
	c0.13-0.87,0.39-1.72,1.37-2.04c0.93-0.3,1.45,0.33,1.94,0.93C6.54,17.5,7.96,19.26,9.57,21.23z"/>
</svg>
