<svg className="h-12 mx-auto" version="1.1" id="Layer_1" x="0px" y="0px"
						viewBox="0 0 31 45.5">

						<g>
							<g>
								<g>
									<path className="st0" d="M21.7,24.5c0-0.2-0.2-0.4-0.4-0.4H9.8c-0.2,0-0.4,0.2-0.4,0.4s0.2,0.4,0.4,0.4h5c0.7-0.1,1.3-0.1,2,0h4.6
            C21.5,24.9,21.7,24.8,21.7,24.5z"/>
									<path className="st0" d="M9.1,29.8H7.5V7.7h11.6v4c0,0.2,0.2,0.4,0.4,0.4h4v5.7c0,0.2,0.2,0.4,0.4,0.4s0.4-0.2,0.4-0.4v-6.1
            c0-0.1,0-0.2-0.1-0.3L19.8,7c-0.1-0.1-0.2-0.1-0.3-0.1H7.1c-0.2,0-0.4,0.2-0.4,0.4v0.5v0.9v1.1v0.9v0.7v4.3v3.1v0.9V21v0.9v1.8
            v0.9v1.8v0.9v1.8v0.8v0.5c0,0.2,0.2,0.4,0.4,0.4h1.8C9,30.4,9,30.1,9.1,29.8z M20,8.3l3,3h-3V8.3z"/>
									<path className="st0" d="M21.3,21.2H9.8c-0.2,0-0.4,0.2-0.4,0.4s0.2,0.4,0.4,0.4h11.5c0.2,0,0.4-0.2,0.4-0.4S21.5,21.2,21.3,21.2z" />
									<path className="st0" d="M24,19.3c-0.2,0-0.4,0.2-0.4,0.4v10.1h-1.2c0.1,0.3,0.1,0.6,0.2,0.8H24c0.2,0,0.4-0.2,0.4-0.4V19.7
            C24.4,19.5,24.2,19.3,24,19.3z"/>
									<path className="st0" d="M9.8,27.8h0.3c0.2-0.3,0.5-0.6,0.7-0.9h-1c-0.2,0-0.4,0.2-0.4,0.4S9.5,27.8,9.8,27.8z" />
								</g>
								<path className="st0" d="M15.3,18.4H9.8c-0.2,0-0.4-0.2-0.4-0.5v-5.5c0-0.1,0.1-0.2,0.1-0.3l2.7-2.7c0.2-0.2,0.4-0.2,0.6,0l2.7,2.7
        c0.1,0.1,0.1,0.2,0.1,0.3v5.5C15.7,18.2,15.5,18.4,15.3,18.4z M10.3,17.5h4.6v-4.8l-2.3-2.2l-2.3,2.2V17.5z"/>
							</g>
							<g>
								<path className="st1" d="M18.9,30.3h-2.4v-2.5c0-0.4-0.3-0.8-0.8-0.8h-0.4c-0.4,0-0.8,0.3-0.8,0.8v2.5h-2.2c-0.4,0-0.8,0.3-0.8,0.8
        v0.3c0,0.4,0.3,0.8,0.8,0.8h2.2v2.5c0,0.4,0.3,0.8,0.8,0.8h0.4c0.4,0,0.8-0.3,0.8-0.8v-2.5h2.4c0.4,0,0.8-0.3,0.8-0.8v-0.3
        C19.7,30.7,19.3,30.3,18.9,30.3z"/>
							</g>
						</g>
					</svg>